<?xml version="1.0" encoding="UTF-8" standalone="no"?>
<!-- Created with Inkscape (http://www.inkscape.org/) -->

<svg
   xmlns:dc="http://purl.org/dc/elements/1.1/"
   xmlns:cc="http://creativecommons.org/ns#"
   xmlns:rdf="http://www.w3.org/1999/02/22-rdf-syntax-ns#"
   xmlns:svg="http://www.w3.org/2000/svg"
   xmlns="http://www.w3.org/2000/svg"
   xmlns:sodipodi="http://sodipodi.sourceforge.net/DTD/sodipodi-0.dtd"
   xmlns:inkscape="http://www.inkscape.org/namespaces/inkscape"
   width="44.066471"
   height="52.98394"
   id="svg2"
   version="1.1"
   inkscape:version="0.48.4 r9939"
   sodipodi:docname="New document 1">
  <defs
     id="defs4" />
  <sodipodi:namedview
     id="base"
     pagecolor="#ffffff"
     bordercolor="#666666"
     borderopacity="1.0"
     inkscape:pageopacity="0.0"
     inkscape:pageshadow="2"
     inkscape:zoom="3.959798"
     inkscape:cx="116.48648"
     inkscape:cy="11.102123"
     inkscape:document-units="px"
     inkscape:current-layer="layer1"
     showgrid="false"
     fit-margin-top="0"
     fit-margin-left="0"
     fit-margin-right="0"
     fit-margin-bottom="0"
     inkscape:window-width="1366"
     inkscape:window-height="711"
     inkscape:window-x="0"
     inkscape:window-y="27"
     inkscape:window-maximized="1" />
  <metadata
     id="metadata7">
    <rdf:RDF>
      <cc:Work
         rdf:about="">
        <dc:format>image/svg+xml</dc:format>
        <dc:type
           rdf:resource="http://purl.org/dc/dcmitype/StillImage" />
        <dc:title></dc:title>
      </cc:Work>
    </rdf:RDF>
  </metadata>
  <g
     inkscape:label="Layer 1"
     inkscape:groupmode="layer"
     id="layer1"
     transform="translate(-449.66759,-561.1223)">
    <path
       style="fill:#ffffff;fill-opacity:1"
       d="m 457.55563,613.60841 c -3.32772,-1.23606 -6.03839,-3.98315 -7.32234,-7.42074 l -0.48134,-1.28872 -0.0595,-16.64311 c -0.0655,-18.34568 -0.0996,-17.77851 1.23185,-20.53081 0.89793,-1.85623 3.49264,-4.43093 5.39299,-5.35142 2.60511,-1.26185 3.07969,-1.2982 16.08166,-1.23192 l 11.72759,0.0598 1.52855,0.55818 c 3.53371,1.29043 6.17567,3.93179 7.53436,7.53265 l 0.46355,1.22853 0.0576,16.72231 c 0.0633,18.36902 0.0906,17.90146 -1.19412,20.44653 -1.34779,2.66997 -4.06513,5.04231 -6.85461,5.98433 -1.2769,0.43122 -1.5812,0.44053 -14.05319,0.42997 l -12.74803,-0.0108 -1.30512,-0.48477 z m 26.98515,-2.78785 c 1.66723,-0.66858 2.50961,-1.22074 3.70022,-2.42538 1.27829,-1.29336 1.96926,-2.47816 2.44426,-4.19114 0.35126,-1.26676 0.37908,-2.46485 0.37908,-16.32414 0,-10.20201 -0.0734,-15.30595 -0.23083,-16.05451 -0.36167,-1.71955 -1.15907,-3.1929 -2.50909,-4.63608 -1.47491,-1.57669 -3.48796,-2.65837 -5.54396,-2.97898 -1.79629,-0.28011 -20.3981,-0.27612 -22.15939,0.005 -3.7916,0.60465 -6.97478,3.54133 -7.96677,7.34985 -0.27049,1.03846 -0.31711,3.40188 -0.31711,16.07474 0,10.12866 0.0735,15.20657 0.23083,15.95473 0.5846,2.77946 2.64927,5.42194 5.22995,6.69361 0.81233,0.40029 1.89634,0.81135 2.40891,0.91346 0.51256,0.10212 5.9178,0.1703 12.01163,0.15152 l 11.07969,-0.0341 1.24258,-0.49829 z m -24.3339,-1.55394 c -2.36331,-0.66859 -4.1959,-2.21529 -5.24253,-4.42466 l -0.65974,-1.39268 0,-15.73938 0,-15.73938 0.63824,-1.34672 c 0.70536,-1.48838 2.18775,-3.10863 3.41862,-3.73658 1.915,-0.97695 2.55339,-1.02606 13.33929,-1.02606 10.78002,0 11.42505,0.0495 13.33319,1.02295 1.28165,0.65385 2.68442,2.17636 3.40323,3.69373 l 0.65974,1.39268 0.0569,15.41154 c 0.0633,17.14718 0.11935,16.37371 -1.34687,18.60109 -0.85216,1.29454 -1.87247,2.13986 -3.50728,2.90574 l -1.2086,0.5662 -10.97614,0.0376 c -8.3566,0.0286 -11.19856,-0.0253 -11.90808,-0.22606 z m 13.1644,-8.42341 c 1.88428,-0.34417 3.68079,-1.30153 5.15228,-2.74566 2.59137,-2.54317 3.59579,-6.10076 2.69685,-9.55202 -0.44891,-1.7235 -1.25409,-3.09455 -2.64984,-4.51214 -3.8379,-3.89794 -10.0759,-3.88644 -13.98814,0.0258 -1.95403,1.95403 -2.92792,4.26932 -2.92341,6.95008 0.005,2.79556 0.96435,5.05774 3.0159,7.10929 2.35653,2.35653 5.43359,3.3206 8.69636,2.72465 z m -4.17658,-2.35296 c -3.5789,-1.17054 -6.00562,-5.17393 -5.29156,-8.72952 1.12503,-5.60191 7.12945,-8.2421 11.88207,-5.22464 1.84175,1.16934 3.04565,3.03667 3.48297,5.40236 0.26627,1.44039 -0.14805,3.64928 -0.93702,4.99555 -0.73507,1.2543 -2.17817,2.53933 -3.59122,3.19784 -0.93954,0.43785 -1.52841,0.55659 -2.93563,0.59195 -1.03477,0.026 -2.11038,-0.0703 -2.60961,-0.23354 z m 3.0088,-0.61451 c 0.14603,-0.17596 0.21804,-0.81568 0.18068,-1.60501 -0.0564,-1.19097 -0.1063,-1.3187 -0.53949,-1.3801 -0.79202,-0.11228 -1.07586,0.31112 -1.07586,1.60483 0,0.6467 0.11183,1.28764 0.24851,1.42432 0.33447,0.33447 0.88912,0.31387 1.18616,-0.044 z m 0.69948,-4.44224 c 1.60327,-1.05712 1.75419,-3.06145 0.3213,-4.26714 -0.48602,-0.40896 -0.85256,-0.52452 -1.66366,-0.52452 -0.90337,0 -1.13139,0.0911 -1.73223,0.69192 -0.87761,0.8776 -1.07139,1.63007 -0.69668,2.70517 0.54324,1.55866 2.45194,2.26447 3.77127,1.39457 z m -4.95264,-2.15118 c 0.39297,-0.62559 -0.0895,-1.07838 -1.22739,-1.15193 -1.52388,-0.0985 -1.95994,0.0703 -1.95994,0.75894 0,0.32056 0.0659,0.64878 0.14655,0.72938 0.0806,0.0806 0.74653,0.11943 1.47983,0.0863 0.99998,-0.0452 1.3902,-0.15086 1.56095,-0.42268 z m 10.48108,0.0518 c 0.15749,-0.29428 0.15749,-0.53411 0,-0.82839 -0.18639,-0.34826 -0.43363,-0.41419 -1.55323,-0.41419 -1.1196,0 -1.36684,0.0659 -1.55323,0.41419 -0.15749,0.29428 -0.15749,0.53411 0,0.82839 0.18639,0.34826 0.43363,0.41419 1.55323,0.41419 1.1196,0 1.36684,-0.0659 1.55323,-0.41419 z m -6.22741,-4.22802 c 0.38088,-0.45894 0.19874,-2.61621 -0.24437,-2.89434 -0.67064,-0.42092 -1.07984,0.0862 -1.15023,1.42544 -0.0346,0.65887 -0.0142,1.32488 0.0453,1.48001 0.142,0.37004 1.03912,0.36265 1.34932,-0.0111 z"
       id="path3000"
       inkscape:connector-curvature="0" />
    <path
       sodipodi:type="arc"
       style="fill:none;stroke:#ffffff;stroke-width:8.75300026;stroke-miterlimit:4;stroke-opacity:1;stroke-dasharray:none;stroke-dashoffset:0"
       id="path3002"
       sodipodi:cx="369.46429"
       sodipodi:cy="497.18362"
       sodipodi:rx="18.75"
       sodipodi:ry="21.607143"
       d="m 388.21429,497.18362 c 0,11.9333 -8.39466,21.60715 -18.75,21.60715 -10.35533,0 -18.75,-9.67385 -18.75,-21.60715 0,-11.93329 8.39467,-21.60714 18.75,-21.60714 10.35534,0 18.75,9.67385 18.75,21.60714 z"
       transform="matrix(0.05481212,0,0,0.08085961,451.35229,545.60347)" />
    <path
       transform="matrix(0,0.05481212,-0.08085961,0,506.62779,570.62752)"
       d="m 388.21429,497.18362 c 0,11.9333 -8.39466,21.60715 -18.75,21.60715 -10.35533,0 -18.75,-9.67385 -18.75,-21.60715 0,-11.93329 8.39467,-21.60714 18.75,-21.60714 10.35534,0 18.75,9.67385 18.75,21.60714 z"
       sodipodi:ry="21.607143"
       sodipodi:rx="18.75"
       sodipodi:cy="497.18362"
       sodipodi:cx="369.46429"
       id="path3772"
       style="fill:none;stroke:#ffffff;stroke-width:8.75300026;stroke-miterlimit:4;stroke-opacity:1;stroke-dasharray:none;stroke-dashoffset:0"
       sodipodi:type="arc" />
    <path
       sodipodi:type="arc"
       style="fill:none;stroke:#ffffff;stroke-width:8.75300026;stroke-miterlimit:4;stroke-opacity:1;stroke-dasharray:none;stroke-dashoffset:0"
       id="path3774"
       sodipodi:cx="369.46429"
       sodipodi:cy="497.18362"
       sodipodi:rx="18.75"
       sodipodi:ry="21.607143"
       d="m 388.21429,497.18362 c 0,11.9333 -8.39466,21.60715 -18.75,21.60715 -10.35533,0 -18.75,-9.67385 -18.75,-21.60715 0,-11.93329 8.39467,-21.60714 18.75,-21.60714 10.35534,0 18.75,9.67385 18.75,21.60714 z"
       transform="matrix(0,0.05481212,-0.08085961,0,516.93087,570.62752)" />
    <path
       transform="matrix(-0.05481212,0,0,-0.08085961,491.82838,636.59835)"
       d="m 388.21429,497.18362 c 0,11.9333 -8.39466,21.60715 -18.75,21.60715 -10.35533,0 -18.75,-9.67385 -18.75,-21.60715 0,-11.93329 8.39467,-21.60714 18.75,-21.60714 10.35534,0 18.75,9.67385 18.75,21.60714 z"
       sodipodi:ry="21.607143"
       sodipodi:rx="18.75"
       sodipodi:cy="497.18362"
       sodipodi:cx="369.46429"
       id="path3776"
       style="fill:none;stroke:#ffffff;stroke-width:8.75300026;stroke-miterlimit:4;stroke-opacity:1;stroke-dasharray:none;stroke-dashoffset:0"
       sodipodi:type="arc" />
    <path
       sodipodi:type="arc"
       style="fill:none;stroke:#ffffff;stroke-width:8.75300026;stroke-miterlimit:4;stroke-opacity:1;stroke-dasharray:none;stroke-dashoffset:0"
       id="path3778"
       sodipodi:cx="307.14285"
       sodipodi:cy="506.64789"
       sodipodi:rx="36.42857"
       sodipodi:ry="36.42857"
       d="m 343.57142,506.64789 c 0,20.11894 -16.30962,36.42857 -36.42857,36.42857 -20.11894,0 -36.42857,-16.30963 -36.42857,-36.42857 0,-20.11895 16.30963,-36.42857 36.42857,-36.42857 20.11895,0 36.42857,16.30962 36.42857,36.42857 z"
       transform="matrix(0.07500389,0,0,0.07500389,448.6574,553.10249)" />
    <path
       transform="matrix(0.21608935,0,0,0.21608935,405.32084,481.64033)"
       d="m 343.57142,506.64789 c 0,20.11894 -16.30962,36.42857 -36.42857,36.42857 -20.11894,0 -36.42857,-16.30963 -36.42857,-36.42857 0,-20.11895 16.30963,-36.42857 36.42857,-36.42857 20.11895,0 36.42857,16.30962 36.42857,36.42857 z"
       sodipodi:ry="36.42857"
       sodipodi:rx="36.42857"
       sodipodi:cy="506.64789"
       sodipodi:cx="307.14285"
       id="path3780"
       style="fill:none;stroke:#ffffff;stroke-width:3.83737826;stroke-miterlimit:4;stroke-opacity:1;stroke-dasharray:none;stroke-dashoffset:0"
       sodipodi:type="arc" />
    <path
       sodipodi:type="arc"
       style="fill:none;stroke:#ffffff;stroke-width:3.83737826;stroke-miterlimit:4;stroke-opacity:1;stroke-dasharray:none;stroke-dashoffset:0"
       id="path3782"
       sodipodi:cx="307.14285"
       sodipodi:cy="506.64789"
       sodipodi:rx="36.42857"
       sodipodi:ry="36.42857"
       d="m 343.57142,506.64789 c 0,20.11894 -16.30962,36.42857 -36.42857,36.42857 -20.11894,0 -36.42857,-16.30963 -36.42857,-36.42857 0,-20.11895 16.30963,-36.42857 36.42857,-36.42857 20.11895,0 36.42857,16.30962 36.42857,36.42857 z"
       transform="matrix(0.27588137,0,0,0.27588137,386.99312,451.27286)" />
  </g>
</svg>
