<?xml version="1.0" encoding="UTF-8" standalone="no"?>
<svg
   xmlns:dc="http://purl.org/dc/elements/1.1/"
   xmlns:cc="http://creativecommons.org/ns#"
   xmlns:rdf="http://www.w3.org/1999/02/22-rdf-syntax-ns#"
   xmlns:svg="http://www.w3.org/2000/svg"
   xmlns="http://www.w3.org/2000/svg"
   xmlns:sodipodi="http://sodipodi.sourceforge.net/DTD/sodipodi-0.dtd"
   xmlns:inkscape="http://www.inkscape.org/namespaces/inkscape"
   version="1.1"
   width="38"
   height="31.6667"
   viewBox="0 0 38 31.6667"
   enable-background="new 0 0 76.00 76.00"
   xml:space="preserve"
   id="svg2"
   inkscape:version="0.48.4 r9939"
   sodipodi:docname="sidebar_purchase.svg"><metadata
     id="metadata10"><rdf:RDF><cc:Work
         rdf:about=""><dc:format>image/svg+xml</dc:format><dc:type
           rdf:resource="http://purl.org/dc/dcmitype/StillImage" /><dc:title /></cc:Work></rdf:RDF></metadata><defs
     id="defs8" /><sodipodi:namedview
     pagecolor="#ffffff"
     bordercolor="#666666"
     borderopacity="1"
     objecttolerance="10"
     gridtolerance="10"
     guidetolerance="10"
     inkscape:pageopacity="0"
     inkscape:pageshadow="2"
     inkscape:window-width="640"
     inkscape:window-height="480"
     id="namedview6"
     showgrid="false"
     fit-margin-top="0"
     fit-margin-left="0"
     fit-margin-right="0"
     fit-margin-bottom="0"
     inkscape:zoom="3.1052632"
     inkscape:cx="19"
     inkscape:cy="17.4167"
     inkscape:window-x="0"
     inkscape:window-y="27"
     inkscape:window-maximized="0"
     inkscape:current-layer="svg2" /><path
     d="m 27.7083,23.75 c 2.1862,0 3.9584,1.7722 3.9584,3.9583 0,2.1862 -1.7722,3.9584 -3.9584,3.9584 -2.1861,0 -3.9583,-1.7722 -3.9583,-3.9584 0,-2.1861 1.7722,-3.9583 3.9583,-3.9583 z m -15.8333,0 c 2.1861,0 3.9583,1.7722 3.9583,3.9583 0,2.1862 -1.7722,3.9584 -3.9583,3.9584 -2.1861,0 -3.9583,-1.7722 -3.9583,-3.9584 0,-2.1861 1.7722,-3.9583 3.9583,-3.9583 z m -5.5417,-1.5833 0,-4.75 L 3.1667,4.75 0,4.75 0,0 l 7.9167,0 0,4.75 30.0833,0 -4.75,17.4167 -26.9167,0 z m 4.9084,-4.75 18.6833,0 1.9,-7.9167 -22.4833,0 1.9,7.9167 z"
     id="path4"
     inkscape:connector-curvature="0"
     style="fill:#ffffff;fill-opacity:1;stroke-width:0.20000000000000001;stroke-linejoin:round" /></svg>