<?xml version="1.0" encoding="UTF-8" standalone="no"?>
<!-- Generator: Adobe Illustrator 15.0.0, SVG Export Plug-In . SVG Version: 6.00 Build 0)  -->

<svg
   xmlns:dc="http://purl.org/dc/elements/1.1/"
   xmlns:cc="http://creativecommons.org/ns#"
   xmlns:rdf="http://www.w3.org/1999/02/22-rdf-syntax-ns#"
   xmlns:svg="http://www.w3.org/2000/svg"
   xmlns="http://www.w3.org/2000/svg"
   xmlns:sodipodi="http://sodipodi.sourceforge.net/DTD/sodipodi-0.dtd"
   xmlns:inkscape="http://www.inkscape.org/namespaces/inkscape"
   version="1.1"
   id="Layer_1"
   x="0px"
   y="0px"
   width="43.572838"
   height="43.278137"
   viewBox="0 0 43.572837 43.278137"
   enable-background="new 0 0 26 26"
   xml:space="preserve"
   inkscape:version="0.48.4 r9939"
   sodipodi:docname="sale2.svg"><metadata
     id="metadata17"><rdf:RDF><cc:Work
         rdf:about=""><dc:format>image/svg+xml</dc:format><dc:type
           rdf:resource="http://purl.org/dc/dcmitype/StillImage" /></cc:Work></rdf:RDF></metadata><defs
     id="defs15" /><sodipodi:namedview
     pagecolor="#ffffff"
     bordercolor="#666666"
     borderopacity="1"
     objecttolerance="10"
     gridtolerance="10"
     guidetolerance="10"
     inkscape:pageopacity="0"
     inkscape:pageshadow="2"
     inkscape:window-width="640"
     inkscape:window-height="480"
     id="namedview13"
     showgrid="false"
     fit-margin-top="0"
     fit-margin-left="0"
     fit-margin-right="0"
     fit-margin-bottom="0"
     inkscape:zoom="4.5384615"
     inkscape:cx="6.1087977"
     inkscape:cy="27.442751"
     inkscape:window-x="0"
     inkscape:window-y="27"
     inkscape:window-maximized="0"
     inkscape:current-layer="Layer_1" /><rect
     width="43.957626"
     height="43.957626"
     id="rect3"
     x="9.0756006"
     y="3.973949"
     style="fill:none" /><g
     id="g5"
     transform="matrix(1.690678,0,0,1.690678,-0.19239616,-0.33966356)"
     style="fill:#ffffff"><path
       d="M 19.249,12.182 H 20.9 c -0.067,-0.805 -0.332,-1.146 -0.456,-1.266 -0.497,-0.475 -1.038,0.313 -1.195,1.266 z"
       id="path7"
       inkscape:connector-curvature="0"
       style="fill:#ffffff" /><path
       d="m 10.166,14.563 c 0,0.493 0.164,0.799 0.429,0.799 0.425,0 0.562,-0.483 0.601,-0.69 0.022,-0.104 0.034,-0.214 0.034,-0.313 V 13.42 c -1.064,0.139 -1.064,0.883 -1.064,1.143 z"
       id="path9"
       inkscape:connector-curvature="0"
       style="fill:#ffffff" /><path
       d="m 25.76,13.855 -1.519,-2.396 0.9,-2.689 C 25.264,8.403 25.112,8 24.777,7.807 L 22.319,6.391 21.866,3.59 C 21.805,3.209 21.483,2.924 21.096,2.908 L 18.262,2.797 16.559,0.527 C 16.327,0.216 15.909,0.113 15.561,0.281 L 13,1.5 10.438,0.281 C 10.09,0.115 9.672,0.219 9.44,0.527 L 7.737,2.797 4.903,2.908 C 4.517,2.924 4.194,3.209 4.134,3.59 L 3.681,6.391 1.223,7.807 C 0.888,8 0.735,8.402 0.858,8.77 l 0.9,2.689 -1.518,2.396 c -0.207,0.326 -0.155,0.754 0.124,1.021 l 2.047,1.963 -0.23,2.826 c -0.031,0.387 0.213,0.74 0.585,0.848 l 2.725,0.785 1.11,2.611 c 0.15,0.355 0.532,0.561 0.91,0.479 l 2.779,-0.57 2.195,1.797 c 0.149,0.121 0.332,0.184 0.515,0.184 0.183,0 0.365,-0.063 0.515,-0.184 l 2.195,-1.797 2.779,0.57 c 0.377,0.08 0.76,-0.123 0.91,-0.479 l 1.11,-2.611 2.725,-0.785 c 0.372,-0.107 0.616,-0.461 0.585,-0.848 l -0.23,-2.826 2.047,-1.963 c 0.279,-0.267 0.331,-0.694 0.124,-1.021 z M 5.383,16.903 C 4.799,16.903 4.197,16.72 3.849,16.436 3.729,16.337 3.682,16.176 3.73,16.029 l 0.26,-0.791 c 0.036,-0.111 0.122,-0.199 0.231,-0.237 0.109,-0.04 0.231,-0.025 0.329,0.039 0.209,0.136 0.545,0.281 0.859,0.281 0.382,0 0.593,-0.206 0.593,-0.581 0,-0.309 -0.049,-0.56 -0.68,-0.986 -0.634,-0.4 -1.488,-1.07 -1.488,-2.18 0,-1.256 0.94,-2.203 2.188,-2.203 0.48,0 0.928,0.129 1.369,0.396 0.15,0.091 0.218,0.275 0.16,0.442 L 7.279,11 C 7.241,11.11 7.154,11.197 7.043,11.233 6.931,11.27 6.81,11.254 6.714,11.187 6.469,11.02 6.273,10.952 6.037,10.952 c -0.437,0 -0.471,0.361 -0.471,0.472 0,0.245 0.029,0.394 0.656,0.823 0.649,0.418 1.526,1.119 1.526,2.315 10e-4,1.401 -0.95,2.341 -2.365,2.341 z m 7.323,-0.082 c -0.004,0 -0.007,0 -0.01,0 h -0.941 c -0.158,0 -0.296,-0.099 -0.35,-0.24 -0.312,0.228 -0.683,0.35 -1.083,0.35 -1.119,0 -1.931,-0.95 -1.931,-2.259 0,-1.559 1.09,-2.612 2.808,-2.759 -0.03,-0.883 -0.335,-0.96 -0.673,-0.96 -0.32,0 -0.615,0.093 -0.878,0.275 C 9.55,11.295 9.424,11.312 9.313,11.275 9.2,11.236 9.112,11.146 9.077,11.032 L 8.846,10.295 C 8.797,10.141 8.854,9.973 8.986,9.878 9.339,9.625 10.019,9.371 10.745,9.371 c 1.03,0 2.259,0.471 2.259,2.709 v 2.865 c 0,0.564 0.018,1.016 0.053,1.344 0.021,0.047 0.034,0.102 0.034,0.157 -10e-4,0.21 -0.194,0.388 -0.385,0.375 z m 3.517,-0.375 c 0,0.207 -0.168,0.375 -0.375,0.375 h -1.051 c -0.207,0 -0.375,-0.168 -0.375,-0.375 V 8.068 c 0,-0.207 0.168,-0.375 0.375,-0.375 h 1.051 c 0.207,0 0.375,0.168 0.375,0.375 v 8.378 z m 6.031,-3.177 c -0.016,0.194 -0.178,0.346 -0.374,0.346 h -2.673 c 0.098,1.707 0.868,1.707 1.17,1.707 0.439,0 0.741,-0.11 0.917,-0.203 0.102,-0.054 0.225,-0.058 0.33,-0.01 0.106,0.048 0.184,0.144 0.21,0.257 l 0.178,0.764 c 0.039,0.168 -0.04,0.34 -0.192,0.418 -0.424,0.221 -1.049,0.356 -1.633,0.356 -1.738,0 -2.776,-1.38 -2.776,-3.69 0,-2.298 1.05,-3.842 2.612,-3.842 1.372,0 2.259,1.283 2.259,3.269 -0.001,0.271 -0.015,0.457 -0.028,0.628 z"
       id="path11"
       inkscape:connector-curvature="0"
       style="fill:#ffffff" /></g></svg>