<?xml version="1.0" encoding="UTF-8" standalone="no"?>
<!-- Generator: Adobe Illustrator 16.0.4, SVG Export Plug-In . SVG Version: 6.00 Build 0)  -->

<svg
   xmlns:dc="http://purl.org/dc/elements/1.1/"
   xmlns:cc="http://creativecommons.org/ns#"
   xmlns:rdf="http://www.w3.org/1999/02/22-rdf-syntax-ns#"
   xmlns:svg="http://www.w3.org/2000/svg"
   xmlns="http://www.w3.org/2000/svg"
   xmlns:sodipodi="http://sodipodi.sourceforge.net/DTD/sodipodi-0.dtd"
   xmlns:inkscape="http://www.inkscape.org/namespaces/inkscape"
   version="1.1"
   id="Capa_1"
   x="0px"
   y="0px"
   width="43.78125"
   height="52.0625"
   viewBox="0 0 43.78125 52.062499"
   enable-background="new 0 0 20.309 23.305"
   xml:space="preserve"
   inkscape:version="0.48.4 r9939"
   sodipodi:docname="seo2.svg"><metadata
     id="metadata21"><rdf:RDF><cc:Work
         rdf:about=""><dc:format>image/svg+xml</dc:format><dc:type
           rdf:resource="http://purl.org/dc/dcmitype/StillImage" /><dc:title></dc:title></cc:Work></rdf:RDF></metadata><defs
     id="defs19" /><sodipodi:namedview
     pagecolor="#ffffff"
     bordercolor="#666666"
     borderopacity="1"
     objecttolerance="10"
     gridtolerance="10"
     guidetolerance="10"
     inkscape:pageopacity="0"
     inkscape:pageshadow="2"
     inkscape:window-width="640"
     inkscape:window-height="480"
     id="namedview17"
     showgrid="false"
     showguides="true"
     inkscape:guide-bbox="true"
     inkscape:zoom="3.5802875"
     inkscape:cx="71.215214"
     inkscape:cy="31.584685"
     inkscape:window-x="0"
     inkscape:window-y="27"
     inkscape:window-maximized="0"
     inkscape:current-layer="g3"
     fit-margin-top="0"
     fit-margin-left="0"
     fit-margin-right="0"
     fit-margin-bottom="0"><sodipodi:guide
       orientation="1,0"
       position="-14.806492,19.259658"
       id="guide3768" /></sodipodi:namedview><g
     id="g3"
     transform="translate(20.875,28.28125)"><path
       d="m -17.808466,20.723153 c 2.335466,0 35.319947,0 37.652973,0 0,-2.372071 0,-43.561188 0,-45.93082 -2.333026,0 -35.315068,0 -37.652973,0 0,2.367191 0,43.556308 0,45.93082 z m 4.490341,-40.210516 h 29.255547 v 2.699086 h -29.255547 v -2.699086 z m 0,8.504804 h 29.255547 v 2.6966446 h -29.255547 v -2.6966446 z m 1.0933,13.5857217 c 1.769292,-0.00244 3.2140108,1.4349568 3.2140108,3.21157 0,0.3074907 -0.095176,0.5856967 -0.1757089,0.8687834 1.1250257,0.9200318 2.3842735,1.9498818 3.4019214,2.7844995 0.5124846,-0.3465373 1.0957408,-0.5954583 1.7595303,-0.5954583 0.3050504,0 0.5808159,0.095176 0.8614622,0.1732686 C -1.7847816,6.973924 0.41646163,3.6720591 2.1027799,1.138921 1.8221337,0.66060211 1.6171398,0.13591552 1.6171398,-0.45954274 c 0,-1.77417286 1.4349568,-3.20912956 3.2066892,-3.20912956 1.7717311,0 3.2091283,1.4373972 3.2091283,3.20912956 0,0.0536889 -0.029285,0.10249691 -0.031725,0.15374537 L 12.10843,2.0906781 c 0.558852,-0.4685573 1.254367,-0.7833693 2.040177,-0.7833693 1.776613,0 3.21157,1.4398377 3.21157,3.2140104 0,1.7741728 -1.437397,3.2140104 -3.21157,3.2140104 -1.774174,0 -3.214011,-1.4398376 -3.214011,-3.2140104 0,-0.046368 0.02441,-0.080534 0.02685,-0.1269009 C 9.607017,3.6061682 8.0402786,2.6910172 6.8322792,1.9857408 6.2758674,2.4420962 5.5974367,2.7471465 4.8262694,2.7471465 c -0.2196363,0 -0.412428,-0.082973 -0.6223027,-0.126901 -1.3519832,2.0279747 -3.60691526,5.4103729 -5.368886,8.0557695 0.212315,0.429511 0.35629876,0.893187 0.35629876,1.403232 0,1.776613 -1.43983756,3.21401 -3.21401046,3.21401 -1.7741727,0 -3.2140103,-1.439838 -3.2140103,-3.21401 0,-0.146424 0.063451,-0.268445 0.082973,-0.409989 L -10.824034,8.6675635 c -0.42707,0.2098746 -0.890746,0.3538584 -1.39835,0.3538584 -1.779053,0 -3.216451,-1.4398376 -3.216451,-3.2091296 -0.0049,-1.7741728 1.432516,-3.2091296 3.21401,-3.2091296 z"
       id="path5"
       inkscape:connector-curvature="0"
       style="fill:none" /><path
       d="m 22.416691,-27.782291 h -42.797342 v 51.077629 h 42.797342 v -51.077629 z m -2.572184,48.505444 c -2.333026,0 -35.317507,0 -37.652973,0 0,-2.374512 0,-43.563629 0,-45.93082 2.337905,0 35.319947,0 37.652973,0 0,2.369632 0,43.558749 0,45.93082 z"
       id="path7"
       inkscape:connector-curvature="0"
       style="fill:#ffffff;fill-opacity:1;stroke:#ffffff;stroke-width:0.97616106;stroke-miterlimit:4;stroke-opacity:1;stroke-dasharray:none" /><rect
       x="-13.748419"
       y="-19.537273"
       width="29.255547"
       height="2.6990852"
       id="rect9"
       style="fill:#ffffff;stroke:#ffffff;stroke-width:0.97616106;stroke-miterlimit:4;stroke-opacity:1;stroke-dasharray:none" /><path
       d="m -12.224825,9.0263027 c 0.507604,0 0.971281,-0.1439838 1.398352,-0.3538585 l 3.6703649,3.0016958 c -0.019524,0.141543 -0.082973,0.263563 -0.082973,0.409987 0,1.776614 1.4398376,3.21401 3.2140103,3.21401 1.7741729,0 3.21401045,-1.439837 3.21401045,-3.21401 0,-0.510044 -0.14642417,-0.973721 -0.35629875,-1.403232 1.76441113,-2.6453958 4.0169028,-6.027794 5.3688859,-8.0557687 0.2074343,0.043927 0.4026665,0.1269009 0.6223028,0.1269009 0.7711672,0 1.4520384,-0.3074907 2.0060098,-0.7614056 1.2079994,0.7052763 2.7771782,1.6204275 4.1291606,2.4086775 -0.0025,0.046368 -0.02685,0.080534 -0.02685,0.126901 0,1.7766131 1.439838,3.2140103 3.214011,3.2140103 1.774172,0 3.211569,-1.4398376 3.211569,-3.2140103 0,-1.7741729 -1.437397,-3.2140105 -3.211569,-3.2140105 -0.78581,0 -1.478884,0.314812 -2.040177,0.7833693 L 7.9987917,-0.30091656 c 0.00244,-0.0536889 0.031725,-0.10005651 0.031725,-0.15374538 0,-1.77417276 -1.4373972,-3.20912956 -3.2091283,-3.20912956 -1.7717325,0 -3.2066892,1.4373972 -3.2066892,3.20912956 0,0.59545827 0.2049938,1.12014486 0.4856401,1.59846374 C 0.41402122,3.6769399 -1.787222,6.9788047 -3.1660495,9.0507067 -3.4442555,8.967733 -3.720021,8.8725573 -4.0250714,8.8725573 c -0.6637895,0 -1.2470457,0.2513615 -1.7595303,0.5954583 -1.0176479,-0.8346177 -2.2768957,-1.8644677 -3.4019214,-2.7844995 0.080534,-0.2830867 0.1757089,-0.5612927 0.1757089,-0.8687834 0,-1.7790536 -1.4471588,-3.2140104 -3.2140108,-3.21157 -1.779053,0 -3.21645,1.4349568 -3.21645,3.21157 -0.0025,1.7717324 1.434956,3.21157 3.21645,3.21157 z"
       id="path15"
       inkscape:connector-curvature="0"
       style="fill:#ffffff;fill-opacity:1" /><rect
       style="fill:#ffffff;fill-opacity:1;stroke:#ffffff;stroke-width:0.97616106;stroke-miterlimit:4;stroke-opacity:1;stroke-dasharray:none"
       id="rect3766"
       height="2.6990852"
       width="29.255547"
       y="-11.968847"
       x="-13.82934" /></g></svg>