<?xml version="1.0" encoding="UTF-8" standalone="no"?>
<svg
   xmlns:dc="http://purl.org/dc/elements/1.1/"
   xmlns:cc="http://creativecommons.org/ns#"
   xmlns:rdf="http://www.w3.org/1999/02/22-rdf-syntax-ns#"
   xmlns:svg="http://www.w3.org/2000/svg"
   xmlns="http://www.w3.org/2000/svg"
   xmlns:sodipodi="http://sodipodi.sourceforge.net/DTD/sodipodi-0.dtd"
   xmlns:inkscape="http://www.inkscape.org/namespaces/inkscape"
   version="1.1"
   width="76.0106"
   height="76.0106"
   viewBox="0 0 76.01 76.01"
   enable-background="new 0 0 76.01 76.01"
   xml:space="preserve"
   id="svg2"
   inkscape:version="0.48.4 r9939"
   sodipodi:docname="sidebar_home.svg"><metadata
     id="metadata10"><rdf:RDF><cc:Work
         rdf:about=""><dc:format>image/svg+xml</dc:format><dc:type
           rdf:resource="http://purl.org/dc/dcmitype/StillImage" /><dc:title /></cc:Work></rdf:RDF></metadata><defs
     id="defs8" /><sodipodi:namedview
     pagecolor="#ffffff"
     bordercolor="#666666"
     borderopacity="1"
     objecttolerance="10"
     gridtolerance="10"
     guidetolerance="10"
     inkscape:pageopacity="0"
     inkscape:pageshadow="2"
     inkscape:window-width="1366"
     inkscape:window-height="711"
     id="namedview6"
     showgrid="false"
     inkscape:zoom="5.6568543"
     inkscape:cx="52.275146"
     inkscape:cy="29.921186"
     inkscape:window-x="0"
     inkscape:window-y="27"
     inkscape:window-maximized="1"
     inkscape:current-layer="g2984"
     showguides="true"
     inkscape:guide-bbox="true" /><g
     id="g3780"
     style="stroke:#0b0000;stroke-opacity:1"
     transform="translate(0,-0.32207627)"><g
       id="g2984"
       style="stroke:#ffffff;stroke-opacity:1;fill:#ffffff"><path
         style="fill:#ffffff;fill-opacity:1;stroke:none"
         d="m 38.593447,6.6452499 c -1.71136,-0.015994 -3.42551,0.052524 -4.562464,0.2187483 C 22.036792,8.6175654 12.01906,17.569053 8.9686795,29.270072 c -1.2204387,4.681387 -1.2241001,10.494668 0,15.21863 3.0774055,11.876097 13.0713085,20.79013 25.2498015,22.499824 12.776034,1.793582 25.47036,-4.940534 31.312254,-16.59362 C 70.08062,41.319019 69.692918,30.050577 64.530743,21.551383 59.680418,13.565629 52.185919,8.4378561 43.124661,6.9264977 42.001429,6.7391501 40.304806,6.6612438 38.593447,6.6452499 z m -1.37499,3.5624721 c 5.99436,-0.2220356 12.063942,1.518582 17.093616,5.312458 9.186378,6.929268 12.909174,18.929682 9.281177,29.812266 -3.412517,10.236224 -12.357748,17.268539 -23.187318,18.218607 -1.343233,0.117839 -2.542411,0.206208 -2.656229,0.187498 -0.113816,-0.01872 -0.612821,-0.05816 -1.124991,-0.09375 C 26.964294,62.973542 18.579963,57.439427 14.249888,48.863668 11.27279,42.96749 10.691057,35.251044 12.71865,28.832575 14.183453,24.195664 16.889233,20.04031 20.593588,16.77017 25.29973,12.615673 31.224098,10.429757 37.218457,10.207722 z m 0.781244,8.156186 -18.99985,14.999882 2.999976,5.03121 1.999984,-2.031234 0,18.031109 27.99978,0 0,-18.031109 1.999985,2.031234 2.999976,-5.03121 -7.999937,-6.312451 0,-7.687439 -3.999969,0.749994 0,3.78122 -6.999945,-5.531206 z m 0,6.937445 10.999914,9.062429 0,17.031116 -5.999953,0 0,-10.999913 -9.999921,0 0,10.999913 -5.999953,0 0,-17.031116 10.999913,-9.062429 z"
         id="path4"
         inkscape:connector-curvature="0" /></g></g></svg>