<?xml version="1.0" encoding="UTF-8" standalone="no"?>
<!-- Generator: Adobe Illustrator 16.0.0, SVG Export Plug-In . SVG Version: 6.00 Build 0)  -->

<svg
   xmlns:dc="http://purl.org/dc/elements/1.1/"
   xmlns:cc="http://creativecommons.org/ns#"
   xmlns:rdf="http://www.w3.org/1999/02/22-rdf-syntax-ns#"
   xmlns:svg="http://www.w3.org/2000/svg"
   xmlns="http://www.w3.org/2000/svg"
   xmlns:sodipodi="http://sodipodi.sourceforge.net/DTD/sodipodi-0.dtd"
   xmlns:inkscape="http://www.inkscape.org/namespaces/inkscape"
   version="1.1"
   id="Layer_11"
   x="0px"
   y="0px"
   width="43.87706"
   height="36.924526"
   viewBox="0 0 43.87706 36.924526"
   enable-background="new 0 0 100 100"
   xml:space="preserve"
   inkscape:version="0.48.4 r9939"
   sodipodi:docname="sidebar_customers.svg"><metadata
     id="metadata9"><rdf:RDF><cc:Work
         rdf:about=""><dc:format>image/svg+xml</dc:format><dc:type
           rdf:resource="http://purl.org/dc/dcmitype/StillImage" /><dc:title></dc:title></cc:Work></rdf:RDF></metadata><defs
     id="defs7" /><sodipodi:namedview
     pagecolor="#ffffff"
     bordercolor="#666666"
     borderopacity="1"
     objecttolerance="10"
     gridtolerance="10"
     guidetolerance="10"
     inkscape:pageopacity="0"
     inkscape:pageshadow="2"
     inkscape:window-width="640"
     inkscape:window-height="480"
     id="namedview5"
     showgrid="false"
     fit-margin-top="0"
     fit-margin-left="0"
     fit-margin-right="0"
     fit-margin-bottom="0"
     inkscape:zoom="6.675088"
     inkscape:cx="32.719511"
     inkscape:cy="16.884698"
     inkscape:window-x="0"
     inkscape:window-y="27"
     inkscape:window-maximized="0"
     inkscape:current-layer="Layer_11" /><path
     d="m 26.477917,6.337616 c 2.028761,1.272012 3.451357,3.424524 3.710907,5.923102 0.826835,0.386587 1.745664,0.608902 2.718702,0.608902 3.554847,0 6.435085,-2.880784 6.435085,-6.434536 C 39.342611,2.880785 36.462373,0 32.907526,0 29.387177,5.47e-4 26.531581,2.829859 26.477917,6.337616 z M 22.26215,19.51333 c 3.553751,0 6.435084,-2.881333 6.435084,-6.435084 0,-3.553753 -2.881333,-6.434538 -6.435084,-6.434538 -3.553753,0 -6.43618,2.881334 -6.43618,6.435085 0,3.553753 2.882427,6.434537 6.43618,6.434537 z m 2.729106,0.438606 h -5.459857 c -4.543217,0 -8.239338,3.69667 -8.239338,8.239339 v 6.678206 l 0.01697,0.104587 0.459961,0.144012 c 4.335687,1.35415 8.102445,1.806445 11.202806,1.806445 6.055617,0 9.565563,-1.726499 9.782402,-1.836562 l 0.429844,-0.217934 h 0.04601 v -6.678754 c 5.46e-4,-4.542669 -3.695575,-8.239339 -8.238792,-8.239339 z m 10.647019,-6.643162 h -5.418239 c -0.0586,2.167845 -0.983991,4.119944 -2.447108,5.523922 4.038356,1.200829 6.992516,4.945683 6.992516,9.368983 v 2.05778 c 5.349792,-0.196578 8.432632,-1.712261 8.635781,-1.814657 l 0.429846,-0.217934 h 0.04599 v -6.679302 c 0,-4.542671 -3.696121,-8.238792 -8.238791,-8.238792 z m -24.66764,-0.438607 c 1.258873,0 2.430132,-0.367421 3.422335,-0.993297 0.315402,-2.057235 1.418215,-3.854919 2.993585,-5.079292 0.0066,-0.120466 0.01807,-0.239839 0.01807,-0.3614 0,-3.5543 -2.881331,-6.435084 -6.433989,-6.435084 -3.554846,0 -6.435084,2.880784 -6.435084,6.435084 0,3.553206 2.880238,6.433989 6.435084,6.433989 z m 5.779092,5.962529 c -1.456546,-1.396861 -2.378659,-3.338557 -2.446012,-5.493258 -0.200958,-0.01478 -0.399727,-0.03067 -0.60452,-0.03067 H 8.239338 C 3.696121,13.308768 0,17.004889 0,21.54756 v 6.678753 l 0.016974,0.103492 0.459963,0.144559 c 3.478187,1.086385 6.582381,1.58632 9.278633,1.744022 v -2.016713 c 0.0011,-4.4233 2.954706,-8.167607 6.994157,-9.368983 z"
     id="path3"
     inkscape:connector-curvature="0"
     style="fill:#ffffff;fill-opacity:1" /></svg>