<?xml version="1.0" encoding="UTF-8" standalone="no"?>
<svg
   xmlns:dc="http://purl.org/dc/elements/1.1/"
   xmlns:cc="http://creativecommons.org/ns#"
   xmlns:rdf="http://www.w3.org/1999/02/22-rdf-syntax-ns#"
   xmlns:svg="http://www.w3.org/2000/svg"
   xmlns="http://www.w3.org/2000/svg"
   xmlns:sodipodi="http://sodipodi.sourceforge.net/DTD/sodipodi-0.dtd"
   xmlns:inkscape="http://www.inkscape.org/namespaces/inkscape"
   version="1.1"
   width="38"
   height="38"
   viewBox="0 0 38 38"
   enable-background="new 0 0 76.00 76.00"
   xml:space="preserve"
   id="svg2"
   inkscape:version="0.48.4 r9939"
   sodipodi:docname="sidebar_suppliers.svg"><metadata
     id="metadata10"><rdf:RDF><cc:Work
         rdf:about=""><dc:format>image/svg+xml</dc:format><dc:type
           rdf:resource="http://purl.org/dc/dcmitype/StillImage" /><dc:title /></cc:Work></rdf:RDF></metadata><defs
     id="defs8" /><sodipodi:namedview
     pagecolor="#ffffff"
     bordercolor="#666666"
     borderopacity="1"
     objecttolerance="10"
     gridtolerance="10"
     guidetolerance="10"
     inkscape:pageopacity="0"
     inkscape:pageshadow="2"
     inkscape:window-width="640"
     inkscape:window-height="480"
     id="namedview6"
     showgrid="false"
     fit-margin-top="0"
     fit-margin-left="0"
     fit-margin-right="0"
     fit-margin-bottom="0"
     inkscape:zoom="4.3915053"
     inkscape:cx="32.020439"
     inkscape:cy="10.845154"
     inkscape:window-x="0"
     inkscape:window-y="27"
     inkscape:window-maximized="0"
     inkscape:current-layer="svg2" /><path
     d="m 19,0 c -5.5417,0 -7.9243,3.1658 -7.125,9.8125 -0.7141,0.4095 -1.1875,1.1803 -1.1875,2.0625 0,1.0795 0.73255,1.99245 1.71875,2.28125 0.412,1.4684 1.03945,2.7726 1.84375,3.8125 l 0,5 c -2.6389,0.5278 -4.73955,0.7917 -7.90625,2.375 C 3.17715,26.92715 2.1111,28.35765 0,30.46875 L 0,38 l 38,0 0,-7.53125 c -2.1111,-2.1111 -3.17715,-3.5416 -6.34375,-5.125 -3.1667,-1.5833 -5.26735,-1.8472 -7.90625,-2.375 l 0,-5 c 0.8043,-1.0399 1.43175,-2.3441 1.84375,-3.8125 0.9862,-0.2888 1.71875,-1.20175 1.71875,-2.28125 0,-0.8822 -0.4734,-1.653 -1.1875,-2.0625 C 26.9243,3.1658 24.5417,0 19,0 z m -2.78125,25.34375 5.5625,0 -1.59375,3.15625 -2.375,0 -1.59375,-3.15625 z m 13.9375,2.3125 L 30.875,29.6875 32.96875,29.25 31.5625,30.90625 33,32.5 30.875,32.125 30.21875,34.15625 29.5,32.125 l -2.125,0.4375 1.40625,-1.625 -1.4375,-1.625 2.125,0.40625 0.6875,-2.0625 z m -12.75,2.4375 3.1875,0 L 19,36.40625 17.40625,30.09375 z"
     id="path4"
     inkscape:connector-curvature="0"
     style="fill:#ffffff" /></svg>