<?xml version="1.0" encoding="UTF-8" standalone="no"?>
<!-- Generator: Adobe Illustrator 16.0.4, SVG Export Plug-In . SVG Version: 6.00 Build 0)  -->

<svg
   xmlns:dc="http://purl.org/dc/elements/1.1/"
   xmlns:cc="http://creativecommons.org/ns#"
   xmlns:rdf="http://www.w3.org/1999/02/22-rdf-syntax-ns#"
   xmlns:svg="http://www.w3.org/2000/svg"
   xmlns="http://www.w3.org/2000/svg"
   xmlns:sodipodi="http://sodipodi.sourceforge.net/DTD/sodipodi-0.dtd"
   xmlns:inkscape="http://www.inkscape.org/namespaces/inkscape"
   version="1.1"
   id="Capa_1"
   x="0px"
   y="0px"
   width="413.63"
   height="112.01"
   viewBox="0 0 413.63001 112.01"
   enable-background="new 0 0 23.303 20.945"
   xml:space="preserve"
   inkscape:version="0.48.4 r9939"
   sodipodi:docname="smartbook_logo.svg"><metadata
     id="metadata15"><rdf:RDF><cc:Work
         rdf:about=""><dc:format>image/svg+xml</dc:format><dc:type
           rdf:resource="http://purl.org/dc/dcmitype/StillImage" /><dc:title /></cc:Work></rdf:RDF></metadata><defs
     id="defs13" /><sodipodi:namedview
     pagecolor="#ffffff"
     bordercolor="#666666"
     borderopacity="1"
     objecttolerance="10"
     gridtolerance="10"
     guidetolerance="10"
     inkscape:pageopacity="0"
     inkscape:pageshadow="2"
     inkscape:window-width="1366"
     inkscape:window-height="711"
     id="namedview11"
     showgrid="false"
     inkscape:zoom="2"
     inkscape:cx="253.91213"
     inkscape:cy="-15.96433"
     inkscape:window-x="0"
     inkscape:window-y="27"
     inkscape:window-maximized="1"
     inkscape:current-layer="g3"
     fit-margin-top="0"
     fit-margin-left="0"
     fit-margin-right="0"
     fit-margin-bottom="0" /><g
     id="g3"
     style="fill:#000080"
     transform="translate(110.01231,51.515624)"><path
       style="fill:#ff8955;fill-opacity:1"
       d="M 329.375 16 C 326.93483 16 324.9375 18.003435 324.9375 20.4375 L 324.9375 66.40625 C 324.9375 68.836974 326.93483 70.84375 329.375 70.84375 L 393.3125 70.84375 C 395.74934 70.84375 397.75 68.836974 397.75 66.40625 L 397.75 20.4375 C 397.75 18.00338 395.7499 16 393.3125 16 L 329.375 16 z M 148.1875 17.75 L 148.1875 32.625 L 145.21875 32.625 L 145.21875 37.96875 L 148.1875 37.96875 L 148.1875 67.71875 L 153.125 67.71875 L 153.125 37.96875 L 159.46875 37.96875 L 159.46875 32.625 L 153.125 32.625 L 153.125 17.75 L 148.1875 17.75 z M 176.71875 17.75 L 176.71875 57.59375 C 176.71875 64.333792 180.1037 67.718749 186.84375 67.71875 L 198.71875 67.71875 C 205.45876 67.718749 208.84371 64.333792 208.84375 57.59375 L 208.84375 42.75 C 208.84371 36.00999 205.45876 32.625034 198.71875 32.625 L 185.65625 32.625 L 185.65625 37.96875 L 198.71875 37.96875 C 201.89051 37.968779 203.49997 39.578243 203.5 42.75 L 203.5 57.59375 C 203.49997 60.765539 201.89051 62.375004 198.71875 62.375 L 186.84375 62.375 C 183.67196 62.375004 182.06249 60.765539 182.0625 57.59375 L 182.0625 17.75 L 176.71875 17.75 z M 291.03125 17.75 L 291.03125 67.71875 L 296.375 67.71875 L 296.375 54.5 L 310.46875 67.71875 L 318.4375 67.71875 L 298.5625 50.15625 L 318.4375 32.625 L 310.46875 32.625 L 296.375 45.875 L 296.375 17.75 L 291.03125 17.75 z M 330.46875 22.21875 L 392.1875 22.21875 L 392.1875 63.15625 L 330.46875 63.15625 L 330.46875 22.21875 z M 18.875 32.625 C 12.134954 32.625034 8.7499976 36.00999 8.75 42.75 C 8.7499976 49.490057 12.134954 52.843764 18.875 52.84375 L 27.78125 52.84375 C 30.953009 52.843764 32.531224 54.421978 32.53125 57.59375 C 32.531224 60.765539 30.953009 62.375004 27.78125 62.375 L 11.1875 62.375 L 11.1875 67.71875 L 27.78125 67.71875 C 34.521262 67.718749 37.906218 64.333792 37.90625 57.59375 C 37.906218 50.853725 34.521262 47.500019 27.78125 47.5 L 18.875 47.5 C 15.703207 47.500019 14.093742 45.921804 14.09375 42.75 C 14.093742 39.578243 15.703207 37.968779 18.875 37.96875 L 34.90625 37.96875 L 34.90625 32.625 L 18.875 32.625 z M 43.25 32.625 L 43.25 67.71875 L 48.625 67.71875 L 48.625 37.96875 L 61.09375 37.96875 L 61.09375 67.71875 L 66.46875 67.71875 L 66.46875 37.96875 L 74.1875 37.96875 C 77.359247 37.968779 78.937461 39.578243 78.9375 42.75 L 78.9375 67.71875 L 84.28125 67.71875 L 84.28125 42.75 C 84.281206 36.00999 80.9275 32.625034 74.1875 32.625 L 43.25 32.625 z M 92.8125 32.625 L 92.8125 37.96875 L 111.84375 37.96875 C 115.01551 37.968779 116.59372 39.578243 116.59375 42.75 L 116.59375 57.59375 C 116.59372 60.765539 115.01551 62.375004 111.84375 62.375 L 99.9375 62.375 C 96.765707 62.375004 95.187492 60.765539 95.1875 57.59375 L 95.1875 57.46875 C 95.187492 54.376273 96.765707 52.843764 99.9375 52.84375 L 113.03125 52.84375 L 113.03125 47.5 L 99.9375 47.5 C 93.197454 47.500019 89.812498 50.80802 89.8125 57.46875 L 89.8125 57.59375 C 89.812498 64.333792 93.197454 67.718749 99.9375 67.71875 L 111.84375 67.71875 C 118.58376 67.718749 121.93747 64.333792 121.9375 57.59375 L 121.9375 42.75 C 121.93747 36.00999 118.58376 32.625034 111.84375 32.625 L 92.8125 32.625 z M 138.0625 32.625 C 131.32245 32.625034 127.9375 36.00999 127.9375 42.75 L 127.9375 67.71875 L 133.28125 67.71875 L 133.28125 42.75 C 133.28124 39.578243 134.89071 37.968779 138.0625 37.96875 L 142.21875 37.96875 L 142.21875 32.625 L 138.0625 32.625 z M 224.9375 32.625 C 218.19745 32.625034 214.8125 36.00999 214.8125 42.75 L 214.8125 57.59375 C 214.8125 64.333792 218.19745 67.718749 224.9375 67.71875 L 236.8125 67.71875 C 243.55251 67.718749 246.93746 64.379498 246.9375 57.71875 L 246.9375 42.75 C 246.93746 36.00999 243.55251 32.625034 236.8125 32.625 L 224.9375 32.625 z M 263.03125 32.625 C 256.2912 32.625034 252.90625 36.00999 252.90625 42.75 L 252.90625 57.59375 C 252.90625 64.333792 256.2912 67.718749 263.03125 67.71875 L 274.9375 67.71875 C 281.67751 67.718749 285.03121 64.379498 285.03125 57.71875 L 285.03125 42.75 C 285.03121 36.00999 281.67751 32.625034 274.9375 32.625 L 263.03125 32.625 z M 381.6875 34.25 C 380.05014 34.25 378.71875 35.578057 378.71875 37.21875 C 378.71875 37.607923 378.83009 37.971677 378.96875 38.3125 C 376.82547 40.246742 373.49962 43.231506 371.4375 45.09375 C 370.97596 44.799106 370.46882 44.5625 369.875 44.5625 C 369.17506 44.5625 368.569 44.84687 368.0625 45.25 C 366.10326 43.584853 362.94026 40.883807 360.6875 38.96875 C 360.80432 38.651848 360.875 38.331228 360.875 37.96875 C 360.875 36.331399 359.54356 35 357.90625 35 C 356.26891 35 354.9375 36.331406 354.9375 37.96875 C 354.9375 38.330131 355.03842 38.650158 355.15625 38.96875 L 341.53125 49.5625 C 341.05864 49.240051 340.52453 49 339.90625 49 C 338.26889 49 336.9375 50.331407 336.9375 51.96875 C 336.9345 53.606106 338.2689 54.9375 339.90625 54.9375 C 341.54026 54.9375 342.875 53.603312 342.875 51.96875 C 342.875 51.674106 342.76653 51.428146 342.6875 51.15625 C 346.47759 48.100604 353.16615 42.696475 356.21875 40.34375 C 356.69689 40.682895 357.27193 40.9375 357.90625 40.9375 C 358.43446 40.9375 358.91574 40.775881 359.34375 40.53125 C 361.30579 42.199738 364.6316 45.016116 367 47.03125 C 366.9692 47.20361 366.90625 47.347754 366.90625 47.53125 C 366.90625 49.168607 368.23769 50.5 369.875 50.5 C 371.51235 50.5 372.84375 49.1686 372.84375 47.53125 C 372.84375 47.242139 372.73528 46.984532 372.65625 46.71875 L 380.34375 39.8125 C 380.75522 40.029333 381.18778 40.15625 381.6875 40.15625 C 383.32484 40.15625 384.65625 38.824857 384.65625 37.1875 C 384.65625 35.550148 383.32479 34.25 381.6875 34.25 z M 224.9375 37.96875 L 236.8125 37.96875 C 239.98426 37.968779 241.59372 39.578243 241.59375 42.75 L 241.59375 57.71875 C 241.59372 60.811245 239.98426 62.375004 236.8125 62.375 L 224.9375 62.375 C 221.76571 62.375004 220.18749 60.765539 220.1875 57.59375 L 220.1875 42.75 C 220.18749 39.578243 221.76571 37.968779 224.9375 37.96875 z M 263.03125 37.96875 L 274.9375 37.96875 C 278.10926 37.968779 279.68747 39.578243 279.6875 42.75 L 279.6875 57.71875 C 279.68747 60.811245 278.10926 62.375004 274.9375 62.375 L 263.03125 62.375 C 259.85946 62.375004 258.28124 60.765539 258.28125 57.59375 L 258.28125 42.75 C 258.28124 39.578243 259.85946 37.968779 263.03125 37.96875 z M 163.59375 60.46875 L 163.59375 67.71875 L 170.71875 67.71875 L 170.71875 60.46875 L 163.59375 60.46875 z M 219.125 78.75 L 219.125 87.28125 C 219.12499 87.960914 218.77341 88.312501 218.09375 88.3125 L 215.5625 88.3125 C 214.88283 88.312501 214.53125 87.960914 214.53125 87.28125 L 214.53125 84.09375 C 214.53125 83.414093 214.88283 83.093756 215.5625 83.09375 L 218.34375 83.09375 L 218.34375 81.9375 L 215.5625 81.9375 C 214.11821 81.937507 213.375 82.649473 213.375 84.09375 L 213.375 87.28125 C 213.375 88.725534 214.11821 89.46875 215.5625 89.46875 L 218.09375 89.46875 C 219.53803 89.46875 220.24999 88.725534 220.25 87.28125 L 220.25 78.75 L 219.125 78.75 z M 224.71875 78.75 L 224.71875 87.28125 C 224.71875 88.725534 225.46196 89.46875 226.90625 89.46875 L 229.4375 89.46875 C 230.88178 89.46875 231.62499 88.725534 231.625 87.28125 L 231.625 84.09375 C 231.62499 82.649473 230.88178 81.937507 229.4375 81.9375 L 226.65625 81.9375 L 226.65625 83.09375 L 229.4375 83.09375 C 230.11716 83.093756 230.46874 83.414093 230.46875 84.09375 L 230.46875 87.28125 C 230.46874 87.960914 230.11716 88.312501 229.4375 88.3125 L 226.90625 88.3125 C 226.22658 88.312501 225.875 87.960914 225.875 87.28125 L 225.875 78.75 L 224.71875 78.75 z M 252.03125 78.75 L 252.03125 79.90625 L 255.21875 79.90625 L 255.21875 89.46875 L 256.375 89.46875 L 256.375 79.90625 L 259.46875 79.90625 L 259.46875 78.75 L 252.03125 78.75 z M 273.375 78.75 L 273.375 89.46875 L 274.5 89.46875 L 274.5 83.09375 L 278.09375 83.09375 C 278.77341 83.093756 279.09374 83.414093 279.09375 84.09375 L 279.09375 89.46875 L 280.25 89.46875 L 280.25 84.09375 C 280.24999 82.649473 279.53803 81.937507 278.09375 81.9375 L 274.5 81.9375 L 274.5 78.75 L 273.375 78.75 z M 307.96875 78.75 L 307.96875 80.3125 L 309.5 80.3125 L 309.5 78.75 L 307.96875 78.75 z M 327.84375 78.75 L 327.84375 89.46875 L 329 89.46875 L 329 78.75 L 327.84375 78.75 z M 329.875 78.75 L 329.875 79.90625 L 333.0625 79.90625 L 333.0625 89.46875 L 334.21875 89.46875 L 334.21875 79.90625 L 337.3125 79.90625 L 337.3125 78.75 L 329.875 78.75 z M 343.5625 78.75 C 342.11821 78.75001 341.40625 79.493226 341.40625 80.9375 L 341.40625 82.1875 C 341.40625 83.631789 342.11821 84.375005 343.5625 84.375 L 347.375 84.375 C 348.05466 84.375005 348.40624 84.695342 348.40625 85.375 L 348.40625 87.3125 C 348.40624 87.975173 348.05466 88.312501 347.375 88.3125 L 342.03125 88.3125 L 342.03125 89.46875 L 347.375 89.46875 C 348.81928 89.46875 349.53124 88.739793 349.53125 87.3125 L 349.53125 85.375 C 349.53124 83.930721 348.81928 83.218756 347.375 83.21875 L 343.5625 83.21875 C 342.88283 83.218756 342.53125 82.867169 342.53125 82.1875 L 342.53125 80.9375 C 342.53125 80.257846 342.88283 79.906259 343.5625 79.90625 L 348.90625 79.90625 L 348.90625 78.75 L 343.5625 78.75 z M 359 78.75 L 359 89.46875 L 360.125 89.46875 L 360.125 78.75 L 359 78.75 z M 369.8125 78.75 L 369.8125 81.9375 L 369.1875 81.9375 L 369.1875 83.09375 L 369.8125 83.09375 L 369.8125 89.46875 L 370.875 89.46875 L 370.875 83.09375 L 372.25 83.09375 L 372.25 81.9375 L 370.875 81.9375 L 370.875 78.75 L 369.8125 78.75 z M 373.125 78.75 L 373.125 80.3125 L 374.65625 80.3125 L 374.65625 78.75 L 373.125 78.75 z M 167.34375 81.9375 C 165.89946 81.937507 165.15625 82.649473 165.15625 84.09375 L 165.15625 91.375 L 166.3125 91.375 L 166.3125 84.09375 C 166.3125 83.414093 166.66408 83.093756 167.34375 83.09375 L 169.875 83.09375 C 170.55466 83.093756 170.90624 83.414093 170.90625 84.09375 L 170.90625 87.28125 C 170.90624 87.960914 170.55466 88.312501 169.875 88.3125 L 167.09375 88.3125 L 167.09375 89.46875 L 169.875 89.46875 C 171.31928 89.46875 172.06249 88.725534 172.0625 87.28125 L 172.0625 84.09375 C 172.06249 82.649473 171.31928 81.937507 169.875 81.9375 L 167.34375 81.9375 z M 175.5 81.9375 C 174.05571 81.937507 173.34375 82.649473 173.34375 84.09375 L 173.34375 87.28125 C 173.34375 88.725534 174.05571 89.46875 175.5 89.46875 L 178.0625 89.46875 C 179.50678 89.46875 180.21874 88.739793 180.21875 87.3125 L 180.21875 84.09375 C 180.21874 82.649473 179.50678 81.937507 178.0625 81.9375 L 175.5 81.9375 z M 180.9375 81.9375 L 183.6875 89.46875 L 184.71875 89.46875 L 186.71875 83.75 L 188.78125 89.46875 L 189.8125 89.46875 L 192.5 81.9375 L 191.3125 81.9375 L 189.28125 87.6875 L 187.21875 81.9375 L 186.21875 81.9375 L 184.1875 87.6875 L 182.15625 81.9375 L 180.9375 81.9375 z M 195.375 81.9375 C 193.93071 81.937507 193.21875 82.649473 193.21875 84.09375 L 193.21875 87.28125 C 193.21875 88.725534 193.93071 89.46875 195.375 89.46875 L 199.46875 89.46875 L 199.46875 88.3125 L 195.375 88.3125 C 194.69533 88.312501 194.375 87.960914 194.375 87.28125 L 194.375 84.09375 C 194.375 83.414093 194.69533 83.093756 195.375 83.09375 L 197.9375 83.09375 C 198.61716 83.093756 198.96874 83.414093 198.96875 84.09375 L 198.96875 84.125 C 198.96874 84.787676 198.61716 85.125004 197.9375 85.125 L 195.125 85.125 L 195.125 86.28125 L 197.9375 86.28125 C 199.38178 86.281253 200.09374 85.552296 200.09375 84.125 L 200.09375 84.09375 C 200.09374 82.649473 199.38178 81.937507 197.9375 81.9375 L 195.375 81.9375 z M 203.4375 81.9375 C 201.99321 81.937507 201.25 82.649473 201.25 84.09375 L 201.25 89.46875 L 202.40625 89.46875 L 202.40625 84.09375 C 202.40625 83.414093 202.75783 83.093756 203.4375 83.09375 L 204.3125 83.09375 L 204.3125 81.9375 L 203.4375 81.9375 z M 207.5 81.9375 C 206.05571 81.937507 205.34375 82.649473 205.34375 84.09375 L 205.34375 87.28125 C 205.34375 88.725534 206.05571 89.46875 207.5 89.46875 L 211.59375 89.46875 L 211.59375 88.3125 L 207.5 88.3125 C 206.82033 88.312501 206.5 87.960914 206.5 87.28125 L 206.5 84.09375 C 206.5 83.414093 206.82033 83.093756 207.5 83.09375 L 210.0625 83.09375 C 210.74216 83.093756 211.06249 83.414093 211.0625 84.09375 L 211.0625 84.125 C 211.06249 84.787676 210.74216 85.125004 210.0625 85.125 L 207.25 85.125 L 207.25 86.28125 L 210.0625 86.28125 C 211.50678 86.281253 212.21874 85.552296 212.21875 84.125 L 212.21875 84.09375 C 212.21874 82.649473 211.50678 81.937507 210.0625 81.9375 L 207.5 81.9375 z M 232.90625 81.9375 L 232.90625 87.28125 C 232.90625 88.725534 233.61821 89.46875 235.0625 89.46875 L 238.625 89.46875 L 238.625 89.84375 C 238.62499 90.523412 238.30466 90.874998 237.625 90.875 L 234.8125 90.875 L 234.8125 92 L 237.625 92 C 239.06928 91.999997 239.78124 91.288032 239.78125 89.84375 L 239.78125 81.9375 L 238.625 81.9375 L 238.625 88.3125 L 235.0625 88.3125 C 234.38283 88.312501 234.03125 87.960914 234.03125 87.28125 L 234.03125 81.9375 L 232.90625 81.9375 z M 260.875 81.9375 C 259.43071 81.937507 258.6875 82.649473 258.6875 84.09375 L 258.6875 87.28125 C 258.6875 88.725534 259.43071 89.46875 260.875 89.46875 L 264.9375 89.46875 L 264.9375 88.3125 L 260.875 88.3125 C 260.19533 88.312501 259.84375 87.960914 259.84375 87.28125 L 259.84375 84.09375 C 259.84375 83.414093 260.19533 83.093756 260.875 83.09375 L 263.40625 83.09375 C 264.08591 83.093756 264.43749 83.414093 264.4375 84.09375 L 264.4375 84.125 C 264.43749 84.787676 264.08591 85.125004 263.40625 85.125 L 260.59375 85.125 L 260.59375 86.28125 L 263.40625 86.28125 C 264.85053 86.281253 265.56249 85.552296 265.5625 84.125 L 265.5625 84.09375 C 265.56249 82.649473 264.85053 81.937507 263.40625 81.9375 L 260.875 81.9375 z M 268.90625 81.9375 C 267.46196 81.937507 266.75 82.649473 266.75 84.09375 L 266.75 87.28125 C 266.75 88.725534 267.46196 89.46875 268.90625 89.46875 L 272.34375 89.46875 L 272.34375 88.3125 L 268.90625 88.3125 C 268.22658 88.312501 267.90625 87.960914 267.90625 87.28125 L 267.90625 84.09375 C 267.90625 83.414093 268.22658 83.093756 268.90625 83.09375 L 272.34375 83.09375 L 272.34375 81.9375 L 268.90625 81.9375 z M 281.53125 81.9375 L 281.53125 89.46875 L 282.6875 89.46875 L 282.6875 83.09375 L 286.25 83.09375 C 286.92966 83.093756 287.24999 83.414093 287.25 84.09375 L 287.25 89.46875 L 288.40625 89.46875 L 288.40625 84.09375 C 288.40624 82.649473 287.69428 81.937507 286.25 81.9375 L 281.53125 81.9375 z M 291.875 81.9375 C 290.43071 81.937507 289.6875 82.649473 289.6875 84.09375 L 289.6875 87.28125 C 289.6875 88.725534 290.43071 89.46875 291.875 89.46875 L 294.40625 89.46875 C 295.85053 89.46875 296.56249 88.739793 296.5625 87.3125 L 296.5625 84.09375 C 296.56249 82.649473 295.85053 81.937507 294.40625 81.9375 L 291.875 81.9375 z M 297.84375 81.9375 L 297.84375 89.46875 L 299 89.46875 L 299 83.09375 L 301.6875 83.09375 L 301.6875 89.46875 L 302.8125 89.46875 L 302.8125 83.09375 L 304.5 83.09375 C 305.17966 83.093756 305.49999 83.414093 305.5 84.09375 L 305.5 89.46875 L 306.65625 89.46875 L 306.65625 84.09375 C 306.65624 82.649473 305.94428 81.937507 304.5 81.9375 L 297.84375 81.9375 z M 308.15625 81.9375 L 308.15625 89.46875 L 309.3125 89.46875 L 309.3125 81.9375 L 308.15625 81.9375 z M 312.9375 81.9375 C 311.49321 81.937507 310.78125 82.649473 310.78125 84.09375 L 310.78125 87.28125 C 310.78125 88.725534 311.49321 89.46875 312.9375 89.46875 L 316.375 89.46875 L 316.375 88.3125 L 312.9375 88.3125 C 312.25783 88.312501 311.9375 87.960914 311.9375 87.28125 L 311.9375 84.09375 C 311.9375 83.414093 312.25783 83.093756 312.9375 83.09375 L 316.375 83.09375 L 316.375 81.9375 L 312.9375 81.9375 z M 319.4375 81.9375 C 317.99321 81.937507 317.28125 82.649473 317.28125 84.09375 C 317.28125 85.538037 317.99321 86.281253 319.4375 86.28125 L 321.34375 86.28125 C 322.02341 86.281253 322.37499 86.60159 322.375 87.28125 C 322.37499 87.960914 322.02341 88.312501 321.34375 88.3125 L 317.78125 88.3125 L 317.78125 89.46875 L 321.34375 89.46875 C 322.78803 89.46875 323.49999 88.725534 323.5 87.28125 C 323.49999 85.83697 322.78803 85.125004 321.34375 85.125 L 319.4375 85.125 C 318.75784 85.125004 318.40625 84.773417 318.40625 84.09375 C 318.40625 83.414093 318.75784 83.093756 319.4375 83.09375 L 322.875 83.09375 L 322.875 81.9375 L 319.4375 81.9375 z M 353 81.9375 C 351.55571 81.937507 350.8125 82.649473 350.8125 84.09375 L 350.8125 87.28125 C 350.8125 88.725534 351.55571 89.46875 353 89.46875 L 355.53125 89.46875 C 356.97553 89.46875 357.71874 88.739793 357.71875 87.3125 L 357.71875 84.09375 C 357.71874 82.649473 356.97553 81.937507 355.53125 81.9375 L 353 81.9375 z M 361.40625 81.9375 L 361.40625 87.28125 C 361.40625 88.725534 362.11821 89.46875 363.5625 89.46875 L 366.125 89.46875 C 367.56928 89.46875 368.28124 88.739793 368.28125 87.3125 L 368.28125 81.9375 L 367.125 81.9375 L 367.125 87.3125 C 367.12499 87.975173 366.80466 88.312501 366.125 88.3125 L 363.5625 88.3125 C 362.88283 88.312501 362.5625 87.960914 362.5625 87.28125 L 362.5625 81.9375 L 361.40625 81.9375 z M 373.34375 81.9375 L 373.34375 89.46875 L 374.46875 89.46875 L 374.46875 81.9375 L 373.34375 81.9375 z M 378.09375 81.9375 C 376.64946 81.937507 375.9375 82.649473 375.9375 84.09375 L 375.9375 87.28125 C 375.9375 88.725534 376.64946 89.46875 378.09375 89.46875 L 380.65625 89.46875 C 382.10053 89.46875 382.81249 88.739793 382.8125 87.3125 L 382.8125 84.09375 C 382.81249 82.649473 382.10053 81.937507 380.65625 81.9375 L 378.09375 81.9375 z M 384.09375 81.9375 L 384.09375 89.46875 L 385.25 89.46875 L 385.25 83.09375 L 388.8125 83.09375 C 389.49216 83.093756 389.84374 83.414093 389.84375 84.09375 L 389.84375 89.46875 L 390.96875 89.46875 L 390.96875 84.09375 C 390.96874 82.649473 390.25678 81.937507 388.8125 81.9375 L 384.09375 81.9375 z M 394.3125 81.9375 C 392.86821 81.937507 392.125 82.649473 392.125 84.09375 C 392.125 85.538037 392.86821 86.281253 394.3125 86.28125 L 396.21875 86.28125 C 396.89841 86.281253 397.24999 86.60159 397.25 87.28125 C 397.24999 87.960914 396.89841 88.312501 396.21875 88.3125 L 392.65625 88.3125 L 392.65625 89.46875 L 396.21875 89.46875 C 397.66303 89.46875 398.37499 88.725534 398.375 87.28125 C 398.37499 85.83697 397.66303 85.125004 396.21875 85.125 L 394.3125 85.125 C 393.63284 85.125004 393.28125 84.773417 393.28125 84.09375 C 393.28125 83.414093 393.63284 83.093756 394.3125 83.09375 L 397.75 83.09375 L 397.75 81.9375 L 394.3125 81.9375 z M 175.5 83.09375 L 178.0625 83.09375 C 178.74216 83.093756 179.06249 83.414093 179.0625 84.09375 L 179.0625 87.3125 C 179.06249 87.975173 178.74216 88.312501 178.0625 88.3125 L 175.5 88.3125 C 174.82033 88.312501 174.46875 87.960914 174.46875 87.28125 L 174.46875 84.09375 C 174.46875 83.414093 174.82033 83.093756 175.5 83.09375 z M 291.875 83.09375 L 294.40625 83.09375 C 295.08591 83.093756 295.43749 83.414093 295.4375 84.09375 L 295.4375 87.3125 C 295.43749 87.975173 295.08591 88.312501 294.40625 88.3125 L 291.875 88.3125 C 291.19533 88.312501 290.84375 87.960914 290.84375 87.28125 L 290.84375 84.09375 C 290.84375 83.414093 291.19533 83.093756 291.875 83.09375 z M 353 83.09375 L 355.53125 83.09375 C 356.21091 83.093756 356.56249 83.414093 356.5625 84.09375 L 356.5625 87.3125 C 356.56249 87.975173 356.21091 88.312501 355.53125 88.3125 L 353 88.3125 C 352.32033 88.312501 351.96875 87.960914 351.96875 87.28125 L 351.96875 84.09375 C 351.96875 83.414093 352.32033 83.093756 353 83.09375 z M 378.09375 83.09375 L 380.65625 83.09375 C 381.33591 83.093756 381.68749 83.414093 381.6875 84.09375 L 381.6875 87.3125 C 381.68749 87.975173 381.33591 88.312501 380.65625 88.3125 L 378.09375 88.3125 C 377.41408 88.312501 377.09375 87.960914 377.09375 87.28125 L 377.09375 84.09375 C 377.09375 83.414093 377.41408 83.093756 378.09375 83.09375 z M 244.25 85.125 L 244.25 86.28125 L 247.9375 86.28125 L 247.9375 85.125 L 244.25 85.125 z "
       transform="translate(-110.01231,-51.515626)"
       id="path5" /></g></svg>