<?xml version="1.0" encoding="UTF-8" standalone="no"?>
<!-- Created with Inkscape (http://www.inkscape.org/) -->

<svg
   xmlns:dc="http://purl.org/dc/elements/1.1/"
   xmlns:cc="http://creativecommons.org/ns#"
   xmlns:rdf="http://www.w3.org/1999/02/22-rdf-syntax-ns#"
   xmlns:svg="http://www.w3.org/2000/svg"
   xmlns="http://www.w3.org/2000/svg"
   xmlns:sodipodi="http://sodipodi.sourceforge.net/DTD/sodipodi-0.dtd"
   xmlns:inkscape="http://www.inkscape.org/namespaces/inkscape"
   width="50.28125"
   height="49.28125"
   id="svg3299"
   version="1.1"
   inkscape:version="0.48.4 r9939"
   sodipodi:docname="New document 2">
  <defs
     id="defs3301" />
  <sodipodi:namedview
     id="base"
     pagecolor="#ffffff"
     bordercolor="#666666"
     borderopacity="1.0"
     inkscape:pageopacity="0.0"
     inkscape:pageshadow="2"
     inkscape:zoom="5.6568542"
     inkscape:cx="6.2251657"
     inkscape:cy="21.361961"
     inkscape:document-units="px"
     inkscape:current-layer="layer1"
     showgrid="false"
     fit-margin-top="0"
     fit-margin-left="0"
     fit-margin-right="0"
     fit-margin-bottom="0"
     inkscape:window-width="1366"
     inkscape:window-height="711"
     inkscape:window-x="0"
     inkscape:window-y="27"
     inkscape:window-maximized="1" />
  <metadata
     id="metadata3304">
    <rdf:RDF>
      <cc:Work
         rdf:about="">
        <dc:format>image/svg+xml</dc:format>
        <dc:type
           rdf:resource="http://purl.org/dc/dcmitype/StillImage" />
        <dc:title></dc:title>
      </cc:Work>
    </rdf:RDF>
  </metadata>
  <g
     inkscape:label="Layer 1"
     inkscape:groupmode="layer"
     id="layer1"
     transform="translate(-265.34375,-545.4375)">
    <path
       style="fill:#ff8955;fill-opacity:1;fill-rule:evenodd;stroke:none"
       d="m 287.84375,545.4375 c -1.42819,0 -1.84928,0.44139 -4.1875,6.71875 l -1.3125,0.53125 c -5.43693,-2.28666 -6.10268,-2.3125 -6.46875,-2.3125 l -0.84375,0.0312 -4.21875,4.125 c -0.98736,1.02603 -0.97076,1.56966 1.90625,7.65625 l -0.53125,1.21875 c -6.44492,2.4929 -6.84375,2.86079 -6.84375,4.28125 l 0,5 c 0,1.45655 0.41203,1.83865 6.875,4.15625 l 0.5,1.21875 c -2.75069,6.23868 -2.73962,6.78358 -1.71875,7.78125 l 3.625,3.5625 0.625,0.53125 0.75,0 c 0.39701,0 1.06727,0.0119 6.40625,-2.40625 l 1.3125,0.53125 c 2.62437,6.46555 3.00578,6.65625 4.34375,6.65625 l 5.09375,0 c 1.42562,0 1.83897,-0.41014 4.1875,-6.6875 l 1.3125,-0.53125 c 5.4292,2.29182 6.074,2.28125 6.4375,2.28125 l 0.84375,0 4.1875,-4.09375 c 1.02861,-1.02088 1.041,-1.61123 -1.84375,-7.6875 l 0.5,-1.21875 c 6.44492,-2.50063 6.84375,-2.8972 6.84375,-4.3125 l 0,-5 c 0,-1.45397 -0.40946,-1.80741 -6.875,-4.125 l -0.5,-1.21875 c 2.74811,-6.2361 2.74221,-6.79936 1.71875,-7.8125 l -3.59375,-3.5 -0.625,-0.5625 -0.8125,0 c -0.39701,0 -1.04376,-0.002 -6.375,2.40625 L 297.25,552.125 c -2.62953,-6.48875 -2.95133,-6.6875 -4.3125,-6.6875 l -5.09375,0 z m 1.09375,3.875 2.90625,0 c 0.53107,1.11368 1.42926,3.19284 2.15625,5 l 0.28125,0.78125 4.375,1.75 0.75,-0.34375 c 1.77622,-0.81206 3.87632,-1.71284 5.03125,-2.15625 l 2.03125,1.96875 c -0.43568,1.16266 -1.31263,3.23409 -2.09375,5 l -0.34375,0.75 1.84375,4.34375 0.78125,0.28125 c 1.82263,0.64965 3.94398,1.44769 5.09375,1.9375 l 0,2.71875 c -1.14204,0.51817 -3.27917,1.41348 -5.125,2.125 l -0.75,0.28125 -1.84375,4.34375 0.375,0.78125 c 0.81464,1.70404 1.72347,3.73038 2.1875,4.875 l -2,1.9375 c -1.17298,-0.42021 -3.35456,-1.28137 -5.1875,-2.0625 l -0.71875,-0.3125 -4.375,1.78125 L 294,585.875 c -0.66253,1.78396 -1.4712,3.88116 -1.96875,5 l -2.90625,0 c -0.52848,-1.11111 -1.39801,-3.22925 -2.125,-5.03125 l -0.3125,-0.75 -4.375,-1.78125 -0.75,0.34375 c -1.77622,0.81206 -3.87374,1.73893 -5.03125,2.1875 L 274.5,583.875 c 0.43567,-1.16009 1.31262,-3.23667 2.09375,-5 l 0.34375,-0.78125 -1.8125,-4.34375 -0.8125,-0.28125 c -1.8252,-0.64965 -3.94397,-1.45026 -5.09375,-1.9375 l 0,-2.71875 c 1.14462,-0.51817 3.27918,-1.3848 5.125,-2.09375 l 0.78125,-0.3125 1.8125,-4.3125 -0.375,-0.8125 c -0.81206,-1.70661 -1.72088,-3.69913 -2.1875,-4.84375 l 2,-1.96875 c 1.17555,0.41763 3.34941,1.28137 5.1875,2.0625 l 0.75,0.3125 4.375,-1.75 0.28125,-0.8125 c 0.65996,-1.78396 1.4712,-3.84733 1.96875,-4.96875 z M 290.5,560.875 c -5.16883,0 -9.375,4.14273 -9.375,9.21875 0,5.08118 4.20617,9.1875 9.375,9.1875 5.1714,0 9.375,-4.10632 9.375,-9.1875 0,-5.07602 -4.2036,-9.21875 -9.375,-9.21875 z m 0,3.875 c 3.03942,0 5.5,2.39971 5.5,5.34375 0,2.9492 -2.46058,5.34375 -5.5,5.34375 -3.03685,0 -5.53125,-2.39455 -5.53125,-5.34375 0,-2.94404 2.4944,-5.34375 5.53125,-5.34375 z"
       id="path78"
       inkscape:connector-curvature="0" />
  </g>
</svg>
