<?xml version="1.0" encoding="UTF-8" standalone="no"?>
<!-- Created with Inkscape (http://www.inkscape.org/) -->

<svg
   xmlns:dc="http://purl.org/dc/elements/1.1/"
   xmlns:cc="http://creativecommons.org/ns#"
   xmlns:rdf="http://www.w3.org/1999/02/22-rdf-syntax-ns#"
   xmlns:svg="http://www.w3.org/2000/svg"
   xmlns="http://www.w3.org/2000/svg"
   xmlns:sodipodi="http://sodipodi.sourceforge.net/DTD/sodipodi-0.dtd"
   xmlns:inkscape="http://www.inkscape.org/namespaces/inkscape"
   width="41.875"
   height="41.875"
   id="svg3355"
   version="1.1"
   inkscape:version="0.48.4 r9939"
   sodipodi:docname="New document 6">
  <defs
     id="defs3357" />
  <sodipodi:namedview
     id="base"
     pagecolor="#ffffff"
     bordercolor="#666666"
     borderopacity="1.0"
     inkscape:pageopacity="0.0"
     inkscape:pageshadow="2"
     inkscape:zoom="2.8"
     inkscape:cx="0.11918294"
     inkscape:cy="21.300169"
     inkscape:document-units="px"
     inkscape:current-layer="layer1"
     showgrid="false"
     fit-margin-top="0"
     fit-margin-left="0"
     fit-margin-right="0"
     fit-margin-bottom="0"
     inkscape:window-width="485"
     inkscape:window-height="399"
     inkscape:window-x="1"
     inkscape:window-y="56"
     inkscape:window-maximized="0" />
  <metadata
     id="metadata3360">
    <rdf:RDF>
      <cc:Work
         rdf:about="">
        <dc:format>image/svg+xml</dc:format>
        <dc:type
           rdf:resource="http://purl.org/dc/dcmitype/StillImage" />
        <dc:title></dc:title>
      </cc:Work>
    </rdf:RDF>
  </metadata>
  <g
     inkscape:label="Layer 1"
     inkscape:groupmode="layer"
     id="layer1"
     transform="translate(-435.13393,-749.63897)">
    <path
       inkscape:connector-curvature="0"
       d="m 436.59469,772.03723 18.01598,0 0,18.01598 c 0,0.80634 0.65422,1.46076 1.46076,1.46076 0.80652,0 1.46076,-0.65442 1.46076,-1.46076 l 0,-18.01598 18.01598,0 c 0.80653,0 1.46076,-0.65442 1.46076,-1.46076 0,-0.80634 -0.65423,-1.46076 -1.46076,-1.46076 l -18.01598,0 0,-18.01598 c 0,-0.80634 -0.65424,-1.46076 -1.46076,-1.46076 -0.80654,0 -1.46076,0.65442 -1.46076,1.46076 l 0,18.01598 -18.01598,0 c -0.80654,0 -1.46076,0.65442 -1.46076,1.46076 0,0.80634 0.65422,1.46076 1.46076,1.46076"
       style="fill:#44cfcb;fill-opacity:1;fill-rule:evenodd;stroke:none"
       id="path20" />
  </g>
</svg>
