<?xml version="1.0" encoding="UTF-8" standalone="no"?>
<!-- Created with Inkscape (http://www.inkscape.org/) -->

<svg
   xmlns:dc="http://purl.org/dc/elements/1.1/"
   xmlns:cc="http://creativecommons.org/ns#"
   xmlns:rdf="http://www.w3.org/1999/02/22-rdf-syntax-ns#"
   xmlns:svg="http://www.w3.org/2000/svg"
   xmlns="http://www.w3.org/2000/svg"
   xmlns:xlink="http://www.w3.org/1999/xlink"
   xmlns:sodipodi="http://sodipodi.sourceforge.net/DTD/sodipodi-0.dtd"
   xmlns:inkscape="http://www.inkscape.org/namespaces/inkscape"
   version="1.0"
   width="21.035742"
   height="20.807247"
   id="svg2408"
   style="display:inline"
   inkscape:version="0.48.4 r9939"
   sodipodi:docname="tree_closed.svg">
  <sodipodi:namedview
     pagecolor="#ffffff"
     bordercolor="#666666"
     borderopacity="1"
     objecttolerance="10"
     gridtolerance="10"
     guidetolerance="10"
     inkscape:pageopacity="0"
     inkscape:pageshadow="2"
     inkscape:window-width="640"
     inkscape:window-height="480"
     id="namedview88"
     showgrid="false"
     inkscape:zoom="4.9166667"
     inkscape:cx="-18.671722"
     inkscape:cy="6.8918777"
     inkscape:window-x="0"
     inkscape:window-y="27"
     inkscape:window-maximized="0"
     inkscape:current-layer="svg2408"
     fit-margin-top="0"
     fit-margin-left="0"
     fit-margin-right="0"
     fit-margin-bottom="0" />
  <defs
     id="defs2410">
    <linearGradient
       id="linearGradient3637">
      <stop
         id="stop3639"
         style="stop-color:#f0f0f0;stop-opacity:1"
         offset="0" />
      <stop
         id="stop3641"
         style="stop-color:#dcdcdc;stop-opacity:1"
         offset="1" />
    </linearGradient>
    <linearGradient
       x1="45.447727"
       y1="92.539597"
       x2="45.447727"
       y2="7.0165396"
       id="ButtonShadow"
       gradientUnits="userSpaceOnUse"
       gradientTransform="scale(1.0058652,0.994169)">
      <stop
         id="stop3750"
         style="stop-color:#000000;stop-opacity:1"
         offset="0" />
      <stop
         id="stop3752"
         style="stop-color:#000000;stop-opacity:0.58823532"
         offset="1" />
    </linearGradient>
    <linearGradient
       id="linearGradient3737">
      <stop
         id="stop3739"
         style="stop-color:#ffffff;stop-opacity:1"
         offset="0" />
      <stop
         id="stop3741"
         style="stop-color:#ffffff;stop-opacity:0"
         offset="1" />
    </linearGradient>
    <linearGradient
       id="linearGradient3700">
      <stop
         id="stop3702"
         style="stop-color:#2276c5;stop-opacity:1"
         offset="0" />
      <stop
         id="stop3704"
         style="stop-color:#68baf4;stop-opacity:1"
         offset="1" />
    </linearGradient>
    <filter
       color-interpolation-filters="sRGB"
       id="filter3174">
      <feGaussianBlur
         id="feGaussianBlur3176"
         stdDeviation="1.71" />
    </filter>
    <linearGradient
       x1="36.357143"
       y1="6"
       x2="36.357143"
       y2="63.893143"
       id="linearGradient3188"
       xlink:href="#linearGradient3737"
       gradientUnits="userSpaceOnUse" />
    <radialGradient
       cx="48"
       cy="90.171875"
       r="42"
       fx="48"
       fy="90.171875"
       id="radialGradient3619"
       xlink:href="#linearGradient3737"
       gradientUnits="userSpaceOnUse"
       gradientTransform="matrix(1.1573129,0,0,0.99590774,-7.5510206,0.19713193)" />
    <linearGradient
       x1="48"
       y1="90"
       x2="48"
       y2="5.9877172"
       id="linearGradient2843"
       xlink:href="#linearGradient3700"
       gradientUnits="userSpaceOnUse"
       gradientTransform="translate(0,100)" />
    <clipPath
       id="clipPath3625">
      <path
         d="M 0,0 0,96 96,96 96,0 0,0 z m 12,6 72,0 c 3.324,0 6,2.676 6,6 l 0,72 c 0,3.324 -2.676,6 -6,6 L 12,90 C 8.676,90 6,87.324 6,84 L 6,12 C 6,8.676 8.676,6 12,6 z"
         inkscape:connector-curvature="0"
         id="path3627"
         style="fill:#ffffff;fill-opacity:1;stroke:none" />
    </clipPath>
    <linearGradient
       x1="44.512066"
       y1="6"
       x2="44.512066"
       y2="90.015434"
       id="linearGradient3643"
       xlink:href="#linearGradient3637"
       gradientUnits="userSpaceOnUse" />
    <clipPath
       id="clipPath3649">
      <rect
         width="76"
         height="76"
         rx="4"
         ry="4"
         x="10"
         y="10"
         id="rect3651"
         style="fill:#ffffff;fill-opacity:1;fill-rule:nonzero;stroke:none" />
    </clipPath>
    <filter
       color-interpolation-filters="sRGB"
       id="filter3657">
      <feGaussianBlur
         id="feGaussianBlur3659"
         stdDeviation="1.14" />
    </filter>
    <linearGradient
       id="linearGradient4081">
      <stop
         id="stop4083"
         style="stop-color:#aaaaaa;stop-opacity:1"
         offset="0" />
      <stop
         id="stop4085"
         style="stop-color:#f0f0f0;stop-opacity:1"
         offset="1" />
    </linearGradient>
    <linearGradient
       x1="29.826593"
       y1="51.954468"
       x2="65.693901"
       y2="51.954468"
       id="linearGradient3034"
       xlink:href="#linearGradient4081"
       gradientUnits="userSpaceOnUse"
       gradientTransform="matrix(0,-1,-1,0,96,16)" />
    <linearGradient
       x1="29.826593"
       y1="51.954468"
       x2="65.693901"
       y2="51.954468"
       id="linearGradient3705"
       xlink:href="#linearGradient4081"
       gradientUnits="userSpaceOnUse"
       gradientTransform="matrix(0,-1,-1,0,36,16)" />
    <linearGradient
       x1="45.447727"
       y1="92.539597"
       x2="45.447727"
       y2="7.0165396"
       id="ButtonShadow-0"
       gradientUnits="userSpaceOnUse"
       gradientTransform="matrix(1.0058652,0,0,0.994169,100,0)">
      <stop
         id="stop3750-8"
         style="stop-color:#000000;stop-opacity:1"
         offset="0" />
      <stop
         id="stop3752-5"
         style="stop-color:#000000;stop-opacity:0.58823532"
         offset="1" />
    </linearGradient>
    <linearGradient
       x1="32.251034"
       y1="6.1317081"
       x2="32.251034"
       y2="90.238609"
       id="linearGradient3780"
       xlink:href="#ButtonShadow-0"
       gradientUnits="userSpaceOnUse"
       gradientTransform="matrix(1.0238095,0,0,-1.0119048,-1.1428571,98.071429)" />
    <linearGradient
       x1="32.251034"
       y1="6.1317081"
       x2="32.251034"
       y2="90.238609"
       id="linearGradient3772"
       xlink:href="#ButtonShadow-0"
       gradientUnits="userSpaceOnUse"
       gradientTransform="matrix(1.0238095,0,0,-1.0119048,-1.1428571,98.071429)" />
    <linearGradient
       x1="32.251034"
       y1="6.1317081"
       x2="32.251034"
       y2="90.238609"
       id="linearGradient3725-3"
       xlink:href="#ButtonShadow-0"
       gradientUnits="userSpaceOnUse"
       gradientTransform="matrix(1.0238095,0,0,-1.0119048,-1.1428571,98.071429)" />
    <linearGradient
       x1="32.251034"
       y1="6.1317081"
       x2="32.251034"
       y2="90.238609"
       id="linearGradient3721-4"
       xlink:href="#ButtonShadow-0"
       gradientUnits="userSpaceOnUse"
       gradientTransform="matrix(1,0,0,-1,0,97)" />
    <linearGradient
       x1="32.251034"
       y1="6.1317081"
       x2="32.251034"
       y2="90.238609"
       id="linearGradient3216"
       xlink:href="#ButtonShadow-0"
       gradientUnits="userSpaceOnUse"
       gradientTransform="matrix(1.0238095,0,0,-1.0119048,-1.1428571,98.071429)" />
    <linearGradient
       x1="36.357143"
       y1="6"
       x2="36.357143"
       y2="63.893143"
       id="linearGradient3188-4"
       xlink:href="#linearGradient3737-5"
       gradientUnits="userSpaceOnUse" />
    <linearGradient
       id="linearGradient3737-5">
      <stop
         id="stop3739-8"
         style="stop-color:#ffffff;stop-opacity:1"
         offset="0" />
      <stop
         id="stop3741-0"
         style="stop-color:#ffffff;stop-opacity:0"
         offset="1" />
    </linearGradient>
    <radialGradient
       cx="48"
       cy="90.171875"
       r="42"
       fx="48"
       fy="90.171875"
       id="radialGradient3619-8"
       xlink:href="#linearGradient3737-5"
       gradientUnits="userSpaceOnUse"
       gradientTransform="matrix(1.1573129,0,0,0.99590774,-7.551021,0.1971319)" />
    <linearGradient
       x1="48"
       y1="74"
       x2="48"
       y2="23.990002"
       id="linearGradient3308"
       xlink:href="#linearGradient4081"
       gradientUnits="userSpaceOnUse" />
    <linearGradient
       inkscape:collect="always"
       xlink:href="#ButtonShadow-0"
       id="linearGradient3066"
       gradientUnits="userSpaceOnUse"
       gradientTransform="matrix(0.22849416,0,0,-0.22849416,-0.4498479,21.257096)"
       x1="32.251034"
       y1="6.1317081"
       x2="32.251034"
       y2="90.238609" />
    <linearGradient
       inkscape:collect="always"
       xlink:href="#ButtonShadow-0"
       id="linearGradient3069"
       gradientUnits="userSpaceOnUse"
       gradientTransform="matrix(0.23393448,0,0,-0.23121432,-0.7109841,21.50191)"
       x1="32.251034"
       y1="6.1317081"
       x2="32.251034"
       y2="90.238609" />
    <linearGradient
       inkscape:collect="always"
       xlink:href="#ButtonShadow-0"
       id="linearGradient3072"
       gradientUnits="userSpaceOnUse"
       gradientTransform="matrix(0.23393448,0,0,-0.23121432,-0.7109841,21.50191)"
       x1="32.251034"
       y1="6.1317081"
       x2="32.251034"
       y2="90.238609" />
    <linearGradient
       inkscape:collect="always"
       xlink:href="#ButtonShadow-0"
       id="linearGradient3075"
       gradientUnits="userSpaceOnUse"
       gradientTransform="matrix(0.23393448,0,0,-0.23121432,-0.7109841,21.50191)"
       x1="32.251034"
       y1="6.1317081"
       x2="32.251034"
       y2="90.238609" />
    <linearGradient
       inkscape:collect="always"
       xlink:href="#ButtonShadow-0"
       id="linearGradient3078"
       gradientUnits="userSpaceOnUse"
       gradientTransform="matrix(0.23393448,0,0,-0.23121432,-0.7109841,21.50191)"
       x1="32.251034"
       y1="6.1317081"
       x2="32.251034"
       y2="90.238609" />
    <radialGradient
       inkscape:collect="always"
       xlink:href="#linearGradient3737-5"
       id="radialGradient3081"
       gradientUnits="userSpaceOnUse"
       gradientTransform="matrix(0.26443923,0,0,0.2275591,-2.175212,-0.861793)"
       cx="48"
       cy="90.171875"
       fx="48"
       fy="90.171875"
       r="42" />
    <linearGradient
       inkscape:collect="always"
       xlink:href="#linearGradient3737-5"
       id="linearGradient3084"
       gradientUnits="userSpaceOnUse"
       x1="36.357143"
       y1="6"
       x2="36.357143"
       y2="63.893143"
       gradientTransform="matrix(0.22849416,0,0,0.22849416,-0.4498479,-0.906837)" />
    <linearGradient
       inkscape:collect="always"
       xlink:href="#linearGradient4081"
       id="linearGradient3090"
       gradientUnits="userSpaceOnUse"
       x1="48"
       y1="74"
       x2="48"
       y2="23.990002"
       gradientTransform="matrix(0.22849416,0,0,0.22849416,-0.4498479,-0.906837)" />
    <linearGradient
       inkscape:collect="always"
       xlink:href="#linearGradient4081"
       id="linearGradient3094"
       gradientUnits="userSpaceOnUse"
       gradientTransform="matrix(0,-1,-1,0,36,16)"
       x1="29.826593"
       y1="51.954468"
       x2="65.693901"
       y2="51.954468" />
    <linearGradient
       inkscape:collect="always"
       xlink:href="#linearGradient4081"
       id="linearGradient3098"
       gradientUnits="userSpaceOnUse"
       gradientTransform="matrix(0,-1,-1,0,96,16)"
       x1="29.826593"
       y1="51.954468"
       x2="65.693901"
       y2="51.954468" />
  </defs>
  <metadata
     id="metadata2413">
    <rdf:RDF>
      <cc:Work
         rdf:about="">
        <dc:format>image/svg+xml</dc:format>
        <dc:type
           rdf:resource="http://purl.org/dc/dcmitype/StillImage" />
        <dc:title></dc:title>
      </cc:Work>
    </rdf:RDF>
  </metadata>
  <g
     id="layer2"
     style="display:none"
     transform="translate(-1.96875,-74.224003)">
    <rect
       width="86"
       height="85"
       rx="6"
       ry="6"
       x="5"
       y="7"
       clip-path="url(#clipPath3625)"
       id="rect3745"
       style="opacity:0.9;fill:url(#ButtonShadow);fill-opacity:1;fill-rule:nonzero;stroke:none;filter:url(#filter3174)" />
  </g>
  <path
     style="opacity:0.07999998;fill:url(#linearGradient3078);fill-opacity:1;fill-rule:nonzero;stroke:none;display:inline"
     id="path3786"
     inkscape:connector-curvature="0"
     d="M 2.292082,0 C 1.03283,0 0,1.03283 0,2.292081 l 0,16.223085 c 0,1.259251 1.03283,2.292081 2.292082,2.292081 l 16.451579,0 c 1.259251,0 2.292081,-1.03283 2.292081,-2.292081 l 0,-16.223085 C 21.035742,1.03283 20.002912,0 18.743661,0 L 2.292082,0 z m 0,0.464127 16.451579,0 c 0.759515,0 1.370964,0.611451 1.370964,1.370966 l 0,16.451578 c 0,0.759515 -0.611449,1.370964 -1.370964,1.370964 l -16.451579,0 c -0.7595147,0 -1.3709649,-0.611449 -1.3709649,-1.370964 l 0,-16.451578 c 0,-0.759515 0.6114502,-1.370966 1.3709649,-1.370966 z" />
  <path
     style="opacity:0.1;fill:url(#linearGradient3075);fill-opacity:1;fill-rule:nonzero;stroke:none;display:inline"
     id="path3778"
     inkscape:connector-curvature="0"
     d="m 2.292082,0.228493 c -1.135989,0 -2.0635878,0.927598 -2.0635878,2.063588 l 0,16.223085 c 0,1.135988 0.9275988,2.063586 2.0635878,2.063586 l 16.451579,0 c 1.135988,0 2.063586,-0.927598 2.063586,-2.063586 l 0,-16.223085 c 0,-1.13599 -0.927598,-2.063588 -2.063586,-2.063588 l -16.451579,0 z m 0,0.235634 16.451579,0 c 0.759515,0 1.370964,0.611451 1.370964,1.370966 l 0,16.451578 c 0,0.759515 -0.611449,1.370964 -1.370964,1.370964 l -16.451579,0 c -0.7595147,0 -1.3709649,-0.611449 -1.3709649,-1.370964 l 0,-16.451578 c 0,-0.759515 0.6114502,-1.370966 1.3709649,-1.370966 z" />
  <path
     style="opacity:0.2;fill:url(#linearGradient3072);fill-opacity:1;fill-rule:nonzero;stroke:none;display:inline"
     id="path3770"
     inkscape:connector-curvature="0"
     d="M 2.1064305,0.471268 C 1.1861661,0.565098 0.4641288,1.347587 0.4641288,2.292081 l 0,16.223085 c 0,1.00746 0.8204921,1.827952 1.8279532,1.827952 l 16.451579,0 c 1.00746,0 1.827952,-0.820492 1.827952,-1.827952 l 0,-16.223085 c 0,-0.959004 -0.744655,-1.747076 -1.685143,-1.820813 0.692995,0.06995 1.228155,0.65178 1.228155,1.363825 l 0,16.451578 c 0,0.759515 -0.611449,1.370964 -1.370964,1.370964 l -16.451579,0 c -0.7595147,0 -1.3709649,-0.611449 -1.3709649,-1.370964 l 0,-16.451578 c 0,-0.712045 0.5351593,-1.293868 1.2281559,-1.363825 -0.014235,0.0011 -0.028705,-0.0014 -0.042843,0 z" />
  <path
     style="opacity:0.3;fill:url(#linearGradient3069);fill-opacity:1;fill-rule:nonzero;stroke:none;display:inline"
     id="rect3723"
     inkscape:connector-curvature="0"
     d="M 1.0210832,1.320981 C 0.8155551,1.59002 0.6926229,1.925868 0.6926229,2.292081 l 0,16.223085 c 0,0.886099 0.7133588,1.599459 1.5994591,1.599459 l 16.451579,0 c 0.886099,0 1.599459,-0.71336 1.599459,-1.599459 l 0,-16.223085 c 0,-0.366213 -0.122935,-0.702061 -0.32846,-0.9711 0.06382,0.158601 0.09996,0.332143 0.09996,0.514112 l 0,16.451578 c 0,0.759515 -0.611449,1.370964 -1.370964,1.370964 l -16.451579,0 c -0.7595146,0 -1.3709648,-0.611449 -1.3709648,-1.370964 l 0,-16.451578 c 0,-0.181971 0.036145,-0.355517 0.099965,-0.514112 z" />
  <path
     style="opacity:0.45;fill:url(#linearGradient3066);fill-opacity:1;fill-rule:nonzero;stroke:none;display:inline"
     id="rect3716"
     inkscape:connector-curvature="0"
     d="m 0.9211171,18.286671 0,0.228495 c 0,0.759513 0.6114502,1.370964 1.3709649,1.370964 l 16.451579,0 c 0.759515,0 1.370964,-0.611451 1.370964,-1.370964 l 0,-0.228495 c 0,0.759515 -0.611449,1.370964 -1.370964,1.370964 l -16.451579,0 c -0.7595147,0 -1.3709649,-0.611449 -1.3709649,-1.370964 z" />
  <g
     id="layer1"
     style="display:none"
     transform="translate(-1.96875,-74.224003)">
    <rect
       width="84"
       height="84"
       rx="6"
       ry="6"
       x="6"
       y="6"
       id="rect2419"
       style="opacity:0.7;fill:#000000;fill-opacity:1;fill-rule:nonzero;stroke:none" />
    <path
       d="m 14,10 c -2.216,0 -4,1.784 -4,4 l 0,68 c 0,2.216 1.784,4 4,4 l 68,0 c 2.216,0 4,-1.784 4,-4 l 0,-68 c 0,-2.216 -1.784,-4 -4,-4 l -68,0 z m 0,3.0625 68,0 c 0.578769,0 0.9375,0.358731 0.9375,0.9375 l 0,68 c 0,0.578769 -0.358731,0.9375 -0.9375,0.9375 l -68,0 c -0.578769,0 -0.9375,-0.358731 -0.9375,-0.9375 l 0,-68 c 0,-0.578769 0.358731,-0.9375 0.9375,-0.9375 z"
       inkscape:connector-curvature="0"
       id="rect3726"
       style="opacity:0.07999998;fill:#000000;fill-opacity:1;fill-rule:nonzero;stroke:none" />
    <path
       d="M 12,6 C 8.676,6 6,8.676 6,12 l 0,72 c 0,3.324 2.676,6 6,6 l 72,0 c 3.324,0 6,-2.676 6,-6 L 90,12 C 90,8.676 87.324,6 84,6 L 12,6 z m 2,4 68,0 c 2.216,0 4,1.784 4,4 l 0,68 c 0,2.216 -1.784,4 -4,4 l -68,0 c -2.216,0 -4,-1.784 -4,-4 l 0,-68 c 0,-2.216 1.784,-4 4,-4 z"
       inkscape:connector-curvature="0"
       id="rect3629"
       style="fill:url(#linearGradient3643);fill-opacity:1;fill-rule:nonzero;stroke:none" />
    <path
       d="M 12,6 C 8.676,6 6,8.676 6,12 l 0,2 0,68 0,2 c 0,0.334721 0.04135,0.6507 0.09375,0.96875 0.0487,0.295596 0.09704,0.596915 0.1875,0.875 0.00988,0.03038 0.020892,0.0636 0.03125,0.09375 0.098865,0.287771 0.2348802,0.547452 0.375,0.8125 0.1445918,0.273507 0.3156161,0.535615 0.5,0.78125 0.1843839,0.245635 0.3737765,0.473472 0.59375,0.6875 0.439947,0.428056 0.94291,0.814526 1.5,1.09375 0.278545,0.139612 0.5734731,0.246947 0.875,0.34375 -0.2562018,-0.100222 -0.4867109,-0.236272 -0.71875,-0.375 -0.00741,-0.0044 -0.023866,0.0045 -0.03125,0 -0.031933,-0.0193 -0.062293,-0.04251 -0.09375,-0.0625 -0.120395,-0.0767 -0.2310226,-0.163513 -0.34375,-0.25 -0.1061728,-0.0808 -0.2132809,-0.161112 -0.3125,-0.25 C 8.4783201,88.557317 8.3087904,88.373362 8.15625,88.1875 8.0486711,88.057245 7.9378561,87.922215 7.84375,87.78125 7.818661,87.74287 7.805304,87.69538 7.78125,87.65625 7.716487,87.553218 7.6510225,87.451733 7.59375,87.34375 7.4927417,87.149044 7.3880752,86.928049 7.3125,86.71875 7.30454,86.69694 7.288911,86.6782 7.28125,86.65625 7.2494249,86.5643 7.2454455,86.469419 7.21875,86.375 7.1884177,86.268382 7.1483606,86.171969 7.125,86.0625 7.0521214,85.720988 7,85.364295 7,85 L 7,83 7,15 7,13 C 7,10.218152 9.2181517,8 12,8 l 2,0 68,0 2,0 c 2.781848,0 5,2.218152 5,5 l 0,2 0,68 0,2 c 0,0.364295 -0.05212,0.720988 -0.125,1.0625 -0.04415,0.206893 -0.08838,0.397658 -0.15625,0.59375 -0.0077,0.02195 -0.0233,0.04069 -0.03125,0.0625 -0.06274,0.173739 -0.138383,0.367449 -0.21875,0.53125 -0.04158,0.0828 -0.07904,0.169954 -0.125,0.25 -0.0546,0.09721 -0.126774,0.18835 -0.1875,0.28125 -0.09411,0.140965 -0.204921,0.275995 -0.3125,0.40625 -0.143174,0.17445 -0.303141,0.346998 -0.46875,0.5 -0.01117,0.0102 -0.01998,0.02115 -0.03125,0.03125 -0.138386,0.125556 -0.285091,0.234436 -0.4375,0.34375 -0.102571,0.07315 -0.204318,0.153364 -0.3125,0.21875 -0.0074,0.0045 -0.02384,-0.0044 -0.03125,0 -0.232039,0.138728 -0.462548,0.274778 -0.71875,0.375 0.301527,-0.0968 0.596455,-0.204138 0.875,-0.34375 0.55709,-0.279224 1.060053,-0.665694 1.5,-1.09375 0.219973,-0.214028 0.409366,-0.441865 0.59375,-0.6875 0.184384,-0.245635 0.355408,-0.507743 0.5,-0.78125 0.14012,-0.265048 0.276135,-0.524729 0.375,-0.8125 0.01041,-0.03078 0.02133,-0.06274 0.03125,-0.09375 0.09046,-0.278085 0.1388,-0.579404 0.1875,-0.875 C 89.95865,84.6507 90,84.334721 90,84 l 0,-2 0,-68 0,-2 C 90,8.676 87.324,6 84,6 L 12,6 z"
       inkscape:connector-curvature="0"
       id="rect3728"
       style="fill:url(#linearGradient3188);fill-opacity:1;fill-rule:nonzero;stroke:none" />
    <path
       d="M 12,90 C 8.676,90 6,87.324 6,84 L 6,82 6,14 6,12 c 0,-0.334721 0.04135,-0.6507 0.09375,-0.96875 0.0487,-0.295596 0.09704,-0.596915 0.1875,-0.875 C 6.29113,10.12587 6.302142,10.09265 6.3125,10.0625 6.411365,9.774729 6.5473802,9.515048 6.6875,9.25 6.8320918,8.976493 7.0031161,8.714385 7.1875,8.46875 7.3718839,8.223115 7.5612765,7.995278 7.78125,7.78125 8.221197,7.353194 8.72416,6.966724 9.28125,6.6875 9.559795,6.547888 9.8547231,6.440553 10.15625,6.34375 9.9000482,6.443972 9.6695391,6.580022 9.4375,6.71875 c -0.00741,0.0044 -0.023866,-0.0045 -0.03125,0 -0.031933,0.0193 -0.062293,0.04251 -0.09375,0.0625 -0.120395,0.0767 -0.2310226,0.163513 -0.34375,0.25 -0.1061728,0.0808 -0.2132809,0.161112 -0.3125,0.25 C 8.4783201,7.442683 8.3087904,7.626638 8.15625,7.8125 8.0486711,7.942755 7.9378561,8.077785 7.84375,8.21875 7.818661,8.25713 7.805304,8.30462 7.78125,8.34375 7.716487,8.446782 7.6510225,8.548267 7.59375,8.65625 7.4927417,8.850956 7.3880752,9.071951 7.3125,9.28125 7.30454,9.30306 7.288911,9.3218 7.28125,9.34375 7.2494249,9.4357 7.2454455,9.530581 7.21875,9.625 7.1884177,9.731618 7.1483606,9.828031 7.125,9.9375 7.0521214,10.279012 7,10.635705 7,11 l 0,2 0,68 0,2 c 0,2.781848 2.2181517,5 5,5 l 2,0 68,0 2,0 c 2.781848,0 5,-2.218152 5,-5 l 0,-2 0,-68 0,-2 C 89,10.635705 88.94788,10.279012 88.875,9.9375 88.83085,9.730607 88.78662,9.539842 88.71875,9.34375 88.71105,9.3218 88.69545,9.30306 88.6875,9.28125 88.62476,9.107511 88.549117,8.913801 88.46875,8.75 88.42717,8.6672 88.38971,8.580046 88.34375,8.5 88.28915,8.40279 88.216976,8.31165 88.15625,8.21875 88.06214,8.077785 87.951329,7.942755 87.84375,7.8125 87.700576,7.63805 87.540609,7.465502 87.375,7.3125 87.36383,7.3023 87.35502,7.29135 87.34375,7.28125 87.205364,7.155694 87.058659,7.046814 86.90625,6.9375 86.803679,6.86435 86.701932,6.784136 86.59375,6.71875 c -0.0074,-0.0045 -0.02384,0.0044 -0.03125,0 -0.232039,-0.138728 -0.462548,-0.274778 -0.71875,-0.375 0.301527,0.0968 0.596455,0.204138 0.875,0.34375 0.55709,0.279224 1.060053,0.665694 1.5,1.09375 0.219973,0.214028 0.409366,0.441865 0.59375,0.6875 0.184384,0.245635 0.355408,0.507743 0.5,0.78125 0.14012,0.265048 0.276135,0.524729 0.375,0.8125 0.01041,0.03078 0.02133,0.06274 0.03125,0.09375 0.09046,0.278085 0.1388,0.579404 0.1875,0.875 C 89.95865,11.3493 90,11.665279 90,12 l 0,2 0,68 0,2 c 0,3.324 -2.676,6 -6,6 l -72,0 z"
       inkscape:connector-curvature="0"
       id="path3615"
       style="opacity:0.6;fill:url(#radialGradient3619);fill-opacity:1;fill-rule:nonzero;stroke:none" />
    <rect
       width="84"
       height="84"
       rx="6"
       ry="6"
       x="6"
       y="106"
       id="rect2841"
       style="fill:url(#linearGradient2843);fill-opacity:1;fill-rule:nonzero;stroke:none" />
    <rect
       width="76"
       height="76"
       rx="4"
       ry="4"
       x="10"
       y="110"
       id="rect3634"
       style="fill:#ff0000;fill-opacity:1;fill-rule:nonzero;stroke:none" />
    <path
       d="m 14,9 c -2.752703,0 -5,2.247297 -5,5 l 0,68 c 0,2.752703 2.247297,5 5,5 l 68,0 c 2.752703,0 5,-2.247297 5,-5 L 87,14 C 87,11.247297 84.752703,9 82,9 L 14,9 z m 0,2 68,0 c 1.679297,0 3,1.320703 3,3 l 0,68 c 0,1.679297 -1.320703,3 -3,3 l -68,0 c -1.679297,0 -3,-1.320703 -3,-3 l 0,-68 c 0,-1.679297 1.320703,-3 3,-3 z"
       inkscape:connector-curvature="0"
       transform="translate(-110,0)"
       clip-path="url(#clipPath3649)"
       id="rect3647"
       style="font-size:medium;font-style:normal;font-variant:normal;font-weight:normal;font-stretch:normal;text-indent:0;text-align:start;text-decoration:none;line-height:normal;letter-spacing:normal;word-spacing:normal;text-transform:none;direction:ltr;block-progression:tb;writing-mode:lr-tb;text-anchor:start;color:#000000;fill:#000000;fill-opacity:1;stroke:none;stroke-width:2;marker:none;visibility:visible;display:inline;overflow:visible;filter:url(#filter3657);enable-background:accumulate;font-family:Abandoned Bitplane;-inkscape-font-specification:Abandoned Bitplane" />
    <path
       d="m 14.089286,10 c -2.216,0 -4,1.784 -4,4 l 0,68 c 0,2.216 1.784,4 4,4 l 68,0 c 2.216,0 4,-1.784 4,-4 l 0,-68 c 0,-2.216 -1.784,-4 -4,-4 l -68,0 z m 0,2 68,0 c 1.140301,0 2,0.859699 2,2 l 0,68 c 0,1.140301 -0.859699,2 -2,2 l -68,0 c -1.140301,0 -2,-0.859699 -2,-2 l 0,-68 c 0,-1.140301 0.859699,-2 2,-2 z"
       inkscape:connector-curvature="0"
       id="path3709"
       style="opacity:0.16000001;fill:#000000;fill-opacity:1;fill-rule:nonzero;stroke:none" />
    <path
       d="m 14,10 c -2.216,0 -4,1.784 -4,4 l 0,68 c 0,2.216 1.784,4 4,4 l 68,0 c 2.216,0 4,-1.784 4,-4 l 0,-68 c 0,-2.216 -1.784,-4 -4,-4 l -68,0 z m 0,1 68,0 c 1.673848,0 3,1.326152 3,3 l 0,68 c 0,1.673848 -1.326152,3 -3,3 l -68,0 c -1.673848,0 -3,-1.326152 -3,-3 l 0,-68 c 0,-1.673848 1.326152,-3 3,-3 z"
       inkscape:connector-curvature="0"
       id="path3707"
       style="opacity:0.36000001;fill:#000000;fill-opacity:1;fill-rule:nonzero;stroke:none" />
  </g>
  <rect
     style="opacity:0.6;fill:#000000;fill-opacity:1;fill-rule:nonzero;stroke:none;display:inline"
     id="rect2419-7"
     y="0.46413025"
     x="0.92111731"
     ry="1.3709649"
     rx="1.3709649"
     height="19.193508"
     width="19.193508" />
  <path
     style="opacity:0.01000001;fill:url(#linearGradient3084);fill-opacity:1;fill-rule:nonzero;stroke:none;display:inline"
     id="rect3728-0"
     inkscape:connector-curvature="0"
     d="m 2.292082,0.464127 c -0.7595147,0 -1.3709649,0.611451 -1.3709649,1.370966 l 0,0.456988 0,15.537602 0,0.456988 c 0,0.07647 0.00945,0.148676 0.021422,0.221354 0.011131,0.06754 0.022173,0.136398 0.042843,0.199932 0.00225,0.0069 0.00476,0.01463 0.00714,0.02143 0.02259,0.06576 0.05367,0.12509 0.085685,0.185648 0.033039,0.0625 0.072116,0.122381 0.1142474,0.178511 0.042132,0.05613 0.085406,0.108185 0.1356692,0.157098 0.1005245,0.09781 0.2154494,0.186123 0.3427412,0.249915 0.063646,0.03191 0.1310349,0.05643 0.1999325,0.07855 -0.058541,-0.02289 -0.1112107,-0.05399 -0.16423,-0.08569 -0.00169,-10e-4 -0.00546,0.001 -0.00714,0 -0.0073,-0.0044 -0.014235,-0.0097 -0.021422,-0.01423 -0.027509,-0.0176 -0.052788,-0.03737 -0.078545,-0.05712 -0.024261,-0.01839 -0.048733,-0.03681 -0.071404,-0.05712 -0.040657,-0.03689 -0.079394,-0.07892 -0.1142474,-0.121393 -0.024581,-0.02975 -0.049902,-0.06062 -0.071404,-0.09282 -0.00573,-0.0087 -0.00878,-0.01957 -0.014274,-0.02857 -0.014789,-0.02355 -0.029757,-0.04674 -0.042843,-0.07141 -0.02308,-0.04449 -0.046995,-0.09498 -0.064265,-0.142805 -0.00182,-0.0049 -0.0054,-0.0093 -0.00714,-0.01423 -0.00728,-0.02102 -0.00819,-0.04268 -0.014275,-0.06427 -0.00694,-0.02436 -0.016074,-0.04638 -0.021422,-0.07141 -0.016647,-0.07803 -0.028563,-0.15953 -0.028563,-0.242773 l 0,-0.45699 0,-15.5376 0,-0.45699 c 0,-0.635635 0.5068347,-1.142471 1.1424709,-1.142471 l 0.4569882,0 15.5376009,0 0.45699,0 c 0.635635,0 1.142471,0.506836 1.142471,1.142471 l 0,0.45699 0,15.5376 0,0.45699 c 0,0.08323 -0.01186,0.16475 -0.02857,0.242773 -0.01008,0.04727 -0.02019,0.09087 -0.03571,0.135668 -0.0018,0.0049 -0.0053,0.0093 -0.0071,0.01423 -0.01443,0.0397 -0.03161,0.08397 -0.04998,0.121392 -0.0095,0.01898 -0.01799,0.03883 -0.02857,0.05712 -0.01246,0.0222 -0.02897,0.04304 -0.04284,0.06427 -0.02151,0.03221 -0.04682,0.06307 -0.07141,0.09282 -0.03272,0.03986 -0.06926,0.07928 -0.107098,0.114255 -0.0026,0.0024 -0.0045,0.0047 -0.0071,0.0071 -0.03161,0.02869 -0.06514,0.05358 -0.09996,0.07855 -0.02345,0.0168 -0.04668,0.03503 -0.07141,0.04998 -0.0017,0.001 -0.0055,-0.001 -0.0071,0 -0.05303,0.03169 -0.105695,0.06279 -0.164236,0.08569 0.0689,-0.02212 0.13628,-0.04664 0.199932,-0.07855 0.127284,-0.0638 0.242216,-0.152097 0.34274,-0.249915 0.05026,-0.04891 0.09354,-0.100969 0.135667,-0.157099 0.04213,-0.05613 0.0812,-0.116015 0.114256,-0.17851 0.03201,-0.06056 0.06309,-0.11989 0.08569,-0.185648 0.0024,-0.0071 0.0049,-0.01443 0.0071,-0.02143 0.02066,-0.06354 0.03171,-0.132386 0.04284,-0.199932 0.01206,-0.07268 0.02143,-0.144881 0.02143,-0.221354 l 0,-0.456988 0,-15.537603 0,-0.456988 c 0,-0.759514 -0.61145,-1.370965 -1.370964,-1.370965 l -16.4515796,0 z" />
  <path
     style="opacity:0.15;fill:url(#radialGradient3081);fill-opacity:1;fill-rule:nonzero;stroke:none;display:inline"
     id="path3615-8"
     inkscape:connector-curvature="0"
     d="m 2.292082,19.657635 c -0.7595147,0 -1.3709649,-0.611449 -1.3709649,-1.370964 l 0,-0.456988 0,-15.537602 0,-0.456988 c 0,-0.07647 0.00945,-0.148677 0.021422,-0.221354 0.011131,-0.06754 0.022173,-0.136399 0.042843,-0.199932 0.00225,-0.0069 0.00476,-0.01463 0.00714,-0.02143 0.02259,-0.06576 0.05367,-0.125089 0.085685,-0.185647 0.033039,-0.0625 0.072116,-0.122382 0.1142474,-0.178511 0.042132,-0.05613 0.085406,-0.108186 0.1356692,-0.157099 0.1005245,-0.09781 0.2154494,-0.186122 0.3427412,-0.249914 0.063646,-0.03191 0.1310349,-0.05643 0.1999325,-0.07855 -0.058541,0.0229 -0.1112107,0.05399 -0.16423,0.08569 -0.00169,0.001 -0.00546,-0.001 -0.00714,0 -0.0073,0.0044 -0.014235,0.0097 -0.021422,0.01423 -0.027509,0.0176 -0.052788,0.03737 -0.078545,0.05712 -0.024261,0.01839 -0.048733,0.03681 -0.071404,0.05712 -0.040657,0.03689 -0.079394,0.07892 -0.1142474,0.121392 -0.024581,0.02975 -0.049902,0.06062 -0.071404,0.09282 -0.00573,0.0087 -0.00878,0.01957 -0.014274,0.02857 -0.014789,0.02355 -0.029757,0.04674 -0.042843,0.07141 -0.02308,0.04448 -0.046995,0.09498 -0.064265,0.142804 -0.00182,0.0049 -0.0054,0.0093 -0.00714,0.01423 -0.00728,0.02102 -0.00819,0.04269 -0.014275,0.06426 -0.00694,0.02436 -0.016074,0.0464 -0.021422,0.07141 -0.016647,0.07803 -0.028563,0.15953 -0.028563,0.242775 l 0,0.456988 0,15.537602 0,0.456988 c 0,0.635637 0.5068347,1.142471 1.1424709,1.142471 l 0.4569882,0 15.5376009,0 0.45699,0 c 0.635635,0 1.142471,-0.506834 1.142471,-1.142471 l 0,-0.456988 0,-15.537602 0,-0.456988 c 0,-0.08324 -0.01186,-0.16475 -0.02857,-0.242775 -0.01008,-0.04727 -0.02019,-0.09087 -0.03571,-0.135668 -0.0018,-0.0049 -0.0053,-0.0093 -0.0071,-0.01423 -0.01443,-0.0397 -0.03161,-0.08397 -0.04998,-0.121392 -0.0095,-0.01898 -0.01799,-0.03883 -0.02857,-0.05712 -0.01246,-0.0222 -0.02897,-0.04304 -0.04284,-0.06425 -0.02151,-0.03221 -0.04682,-0.06307 -0.07141,-0.09282 -0.03272,-0.03986 -0.06926,-0.07928 -0.107098,-0.114255 -0.0026,-0.0024 -0.0045,-0.0047 -0.0071,-0.0071 -0.03161,-0.02869 -0.06514,-0.05356 -0.09996,-0.07855 -0.02345,-0.01681 -0.04668,-0.03503 -0.07141,-0.04998 -0.0017,-0.001 -0.0055,0.001 -0.0071,0 -0.05303,-0.03169 -0.105695,-0.06279 -0.164236,-0.08569 0.0689,0.02212 0.13628,0.04664 0.199932,0.07855 0.127284,0.0638 0.242216,0.152097 0.34274,0.249915 0.05026,0.04891 0.09354,0.100969 0.135667,0.157098 0.04213,0.05613 0.0812,0.116015 0.114256,0.178511 0.03201,0.06056 0.06309,0.11989 0.08569,0.185648 0.0024,0.0071 0.0049,0.01443 0.0071,0.02143 0.02066,0.06354 0.03171,0.132385 0.04284,0.199932 0.01206,0.07268 0.02143,0.144881 0.02143,0.221354 l 0,0.456988 0,15.537602 0,0.456988 c 0,0.759515 -0.61145,1.370964 -1.370964,1.370964 l -16.4515796,0 z" />
  <path
     inkscape:connector-curvature="0"
     style="opacity:0.1;color:#000000;fill:#000000;fill-opacity:1;fill-rule:nonzero;stroke:none;stroke-width:1;marker:none;visibility:visible;display:inline;overflow:visible;enable-background:accumulate"
     id="path3957"
     d="m 6.1764824,4.298545 c -0.6530355,0 -1.1924538,0.539418 -1.1924538,1.192453 l 0,1.142471 c -2e-6,-0.0011 0.00724,0.05103 0.00714,0.04998 -1.055e-4,-0.0011 0.00735,0.05103 0.00714,0.04998 -2.082e-4,-0.001 0.00745,0.05099 0.00714,0.04998 -2.969e-4,-10e-4 0.021829,0.04381 0.021422,0.04284 -4.114e-4,-9.82e-4 0.021922,0.04377 0.021422,0.04284 -5.025e-4,-9.38e-4 0.022011,0.04371 0.021422,0.04284 -1.811e-4,-2.75e-4 0.00322,0.0091 0.00714,0.01423 C 4.7532796,7.183335 4.5270523,7.56002 4.5270523,8.004418 l 0,4.105754 0,0.0071 c 2.515e-4,0.0091 0.00718,0.03642 0.00714,0.03571 -5.58e-5,-8.68e-4 1.241e-4,0.04369 0,0.04284 -1.24e-4,-8.46e-4 0.00733,0.03654 0.00714,0.03571 -1.917e-4,-8.46e-4 0.014532,0.04367 0.014274,0.04284 -2.512e-4,-8.23e-4 0.014611,0.0365 0.014275,0.03571 -3.199e-4,-8.01e-4 0.01467,0.03648 0.014274,0.03571 3.885e-4,-7.77e-4 -0.014611,0.0365 -0.014274,0.03571 3.198e-4,-8.01e-4 -0.014532,0.03652 -0.014275,0.03571 2.513e-4,-8.23e-4 -0.014472,0.04369 -0.014274,0.04284 1.916e-4,-8.46e-4 -0.00726,0.03656 -0.00714,0.03571 1.241e-4,-8.46e-4 -5.58e-5,0.04371 0,0.04284 4.66e-5,-7.31e-4 -0.0069,0.02667 -0.00714,0.03571 -4.7e-5,0.0017 2.2e-6,0.0073 0,0.0071 l 0,1.820813 c -2e-6,-0.0011 0.00724,0.05103 0.00714,0.04998 -1.054e-4,-0.0011 0.00735,0.05103 0.00714,0.04998 -2.082e-4,-0.001 0.00745,0.05099 0.00714,0.04998 -2.972e-4,-0.001 0.021829,0.04381 0.021422,0.04284 -4.112e-4,-9.83e-4 0.021922,0.04377 0.021422,0.04284 -5.026e-4,-9.37e-4 0.022011,0.04371 0.021422,0.04284 -5.941e-4,-8.92e-4 0.029233,0.04365 0.028561,0.04284 -6.625e-4,-8.24e-4 0.036451,0.03646 0.035702,0.03571 -7.54e-4,-7.55e-4 0.036521,0.03638 0.035702,0.03571 -8.225e-4,-6.63e-4 0.043723,0.02914 0.042843,0.02857 -8.911e-4,-5.93e-4 0.043776,0.02193 0.042843,0.02143 -9.369e-4,-5.02e-4 0.04382,0.02183 0.042843,0.02143 -9.826e-4,-4.11e-4 0.043856,0.02173 0.042843,0.02143 -0.00101,-3.2e-4 0.05102,0.0073 0.049983,0.0071 -0.00103,-2.07e-4 0.051036,0.0073 0.049983,0.0071 -0.00105,-1.07e-4 0.051042,0.0071 0.049982,0.0071 l 1.3209817,0 0,1.320984 c -1.9e-6,-0.0011 0.00724,0.05103 0.00714,0.04998 -1.056e-4,-0.0011 0.00735,0.05103 0.00714,0.04998 -2.08e-4,-10e-4 0.00745,0.05099 0.00714,0.04998 -2.971e-4,-0.001 0.021829,0.04381 0.021422,0.04284 -4.113e-4,-9.83e-4 0.021922,0.04377 0.021422,0.04284 -5.026e-4,-9.37e-4 0.022011,0.04371 0.021422,0.04284 -5.942e-4,-8.91e-4 0.029233,0.04365 0.028561,0.04284 -6.627e-4,-8.23e-4 0.036451,0.03646 0.035702,0.03571 -7.54e-4,-7.54e-4 0.036521,0.03638 0.035702,0.03571 -8.224e-4,-6.63e-4 0.043723,0.02916 0.042843,0.02857 -8.91e-4,-5.95e-4 0.043776,0.02193 0.042843,0.02143 -9.369e-4,-5.04e-4 0.04382,0.02183 0.042843,0.02141 -9.824e-4,-4.11e-4 0.043856,0.02173 0.042843,0.02143 -0.00101,-3.18e-4 0.05102,0.0073 0.049983,0.0071 -0.00103,-2.08e-4 0.051036,0.0073 0.049982,0.0071 -0.00105,-1.07e-4 0.051042,0.0071 0.049983,0.0071 l 1.827953,0 c -0.0011,2e-6 0.05104,-0.0073 0.04998,-0.0071 -0.0011,1.05e-4 0.05102,-0.0073 0.04998,-0.0071 -0.001,2.07e-4 0.05099,-0.0075 0.04998,-0.0071 -10e-4,3.21e-4 0.04382,-0.02183 0.04284,-0.02143 -9.82e-4,4.11e-4 0.04378,-0.02193 0.04284,-0.02141 -9.37e-4,5.02e-4 0.04372,-0.02201 0.04284,-0.02143 -8.91e-4,5.94e-4 0.04366,-0.02924 0.04284,-0.02857 -8.23e-4,6.64e-4 0.03645,-0.03646 0.0357,-0.03571 -7.54e-4,7.55e-4 0.03637,-0.03652 0.0357,-0.03571 -6.62e-4,8.22e-4 0.02915,-0.04373 0.02856,-0.04284 -5.94e-4,8.9e-4 0.02192,-0.04377 0.02142,-0.04284 -5.03e-4,9.37e-4 0.02183,-0.04381 0.02142,-0.04284 -4.11e-4,9.82e-4 0.02173,-0.04385 0.02142,-0.04284 -3.2e-4,0.001 0.0074,-0.05103 0.0071,-0.04998 -2.08e-4,0.001 0.0072,-0.05103 0.0071,-0.04998 -1.06e-4,0.0011 0.0071,-0.05105 0.0071,-0.04998 l 0,-1.320984 1.313841,0 c -1.4e-4,-2e-6 0.0054,4.8e-5 0.0071,0 0.009,-2.51e-4 0.03642,-0.0071 0.0357,-0.0071 -8.69e-4,5.5e-5 0.04369,-1.25e-4 0.04284,0 -8.46e-4,1.24e-4 0.03654,-0.0073 0.0357,-0.0071 -8.45e-4,1.92e-4 0.04367,-0.01463 0.04284,-0.01424 -8.22e-4,2.52e-4 0.0365,-0.01463 0.0357,-0.01423 -7.99e-4,3.21e-4 0.03647,-0.01463 0.0357,-0.01423 -7.76e-4,-3.9e-4 0.0365,0.01463 0.0357,0.01423 -8e-4,-3.2e-4 0.03652,0.01463 0.0357,0.01423 -8.23e-4,-2.51e-4 0.04368,0.01443 0.04284,0.01424 -8.45e-4,-1.91e-4 0.03656,0.0073 0.0357,0.0071 -8.45e-4,-1.25e-4 0.0437,5.5e-5 0.04284,0 -7.31e-4,-4.8e-5 0.02667,0.0069 0.0357,0.0071 0.0017,4.8e-5 0.0073,-2e-6 0.0071,0 l 4.105754,0 c 0.779132,0 1.420948,-0.641815 1.420948,-1.420946 l 0,-5.483859 c 0,-0.442643 -0.226532,-0.820534 -0.549814,-1.078208 0.004,-0.0053 0.0073,-0.01463 0.0071,-0.01424 -5.95e-4,8.91e-4 0.02193,-0.04377 0.02141,-0.04284 -5.02e-4,9.37e-4 0.02183,-0.04381 0.02143,-0.04284 -4.11e-4,9.83e-4 0.02173,-0.04385 0.02143,-0.04284 -3.2e-4,0.001 0.0073,-0.05103 0.0071,-0.04998 -2.1e-4,0.001 0.0073,-0.05103 0.0071,-0.04998 -1.04e-4,0.0011 0.0071,-0.05105 0.0071,-0.04998 0,-0.779131 -0.641816,-1.420948 -1.420948,-1.420948 l -4.805518,0 C 9.694678,4.697041 9.243261,4.298456 8.689622,4.298456 l -2.5134357,0 z" />
  <path
     inkscape:connector-curvature="0"
     style="opacity:0.15;color:#000000;fill:#000000;fill-opacity:1;fill-rule:nonzero;stroke:none;stroke-width:1;marker:none;visibility:visible;display:inline;overflow:visible;enable-background:accumulate"
     id="path3953"
     d="m 6.1764824,4.569881 c -0.5064634,0 -0.9211169,0.414655 -0.9211169,0.921117 l 0,1.142471 a 0.23610635,0.23610635 0 0 0 0.2356346,0.235634 l 0.3855837,0 C 5.2780621,6.907853 4.7983771,7.396475 4.7983771,8.004435 l 0,4.112894 a 0.23610635,0.23610635 0 0 0 0.16423,0.228495 0.23610635,0.23610635 0 0 0 -0.16423,0.228493 l 0,1.827953 a 0.23610635,0.23610635 0 0 0 0.2356346,0.235635 l 1.5923186,0 0,1.592319 a 0.23610635,0.23610635 0 0 0 0.2356346,0.235634 l 1.8279531,0 a 0.23610635,0.23610635 0 0 0 0.235635,-0.235634 l 0,-1.592319 1.592318,0 a 0.23610635,0.23610635 0 0 0 0.228494,-0.164236 0.23610635,0.23610635 0 0 0 0.228494,0.164236 l 4.112895,0 c 0.633049,0 1.149612,-0.516562 1.149612,-1.14961 l 0,-5.48386 c 0,-0.605805 -0.475264,-1.096419 -1.078207,-1.135332 l 0.385583,0 a 0.23610635,0.23610635 0 0 0 0.235635,-0.235634 c 0,-0.633049 -0.516562,-1.14961 -1.149611,-1.14961 l -5.019731,0 C 9.607035,4.980712 9.193947,4.569881 8.689918,4.569881 l -2.5134356,0 z m 0.4641288,5.95513 0.1356691,0 a 0.23610635,0.23610635 0 0 0 -0.1356691,0.135667 l 0,-0.135667 z m 2.1349918,0 0.135669,0 0,0.135667 A 0.23610635,0.23610635 0 0 0 8.775603,10.525011 z m -2.1492727,1.678002 0,0.135667 -0.1356691,0 a 0.23610635,0.23610635 0 0 0 0.1356691,-0.135667 z m 2.2992227,0 a 0.23610635,0.23610635 0 0 0 0.135669,0.135667 l -0.135669,0 0,-0.135667 z m 1.678004,0.149942 0.135669,0 0,0.135667 a 0.23610635,0.23610635 0 0 0 -0.135669,-0.135667 z" />
  <path
     style="opacity:0.3;color:#000000;fill:#000000;fill-opacity:1;fill-rule:nonzero;stroke:none;stroke-width:1;marker:none;visibility:visible;display:inline;overflow:visible;enable-background:accumulate"
     id="path3947"
     inkscape:connector-curvature="0"
     d="m 6.1764824,4.805515 c -0.3797573,0 -0.6854823,0.305726 -0.6854823,0.685483 l 0,1.142471 10.0537419,0 c 0,-0.506344 -0.407633,-0.913976 -0.913976,-0.913976 l -5.255366,0 0,-0.228495 C 9.3754,5.111241 9.069675,4.805515 8.689918,4.805515 z M 5.9479882,7.090457 c -0.506343,0 -0.9139765,0.407634 -0.9139765,0.913978 l 0,4.112894 1.3709649,0 0,-1.827954 2.7419294,0 0,1.827954 1.827953,0 0,2.284941 4.112895,0 c 0.506343,0 0.913978,-0.407634 0.913978,-0.913975 l 0,-5.48386 c 0,-0.506344 -0.400412,-0.913978 -0.913978,-0.913978 l -1.142471,0 -5.026871,0 z m 0.9139767,3.655908 0,1.827952 -1.8279532,0 0,1.827953 1.8279532,0 0,1.827954 1.8279531,0 0,-1.827954 1.827953,0 0,-1.827953 -1.827953,0 0,-1.827952 z" />
  <path
     style="color:#000000;fill:url(#linearGradient3090);fill-opacity:1;fill-rule:nonzero;stroke:none;stroke-width:1;marker:none;visibility:visible;display:inline;overflow:visible;enable-background:accumulate"
     id="rect3120"
     inkscape:connector-curvature="0"
     d="m 6.1764824,4.577022 c -0.3797573,0 -0.6854823,0.305726 -0.6854823,0.685483 l 0,1.142471 10.0537419,0 c 0,-0.506344 -0.407633,-0.913978 -0.913976,-0.913978 l -5.255366,0 0,-0.228493 C 9.3754,4.882748 9.069675,4.577022 8.689918,4.577022 z M 5.9479882,6.861964 c -0.506343,0 -0.9139765,0.407632 -0.9139765,0.913976 l 0,4.112896 1.3709649,0 0,-1.827954 2.7419294,0 0,1.827954 1.827953,0 0,2.284939 4.112895,0 c 0.506343,0 0.913978,-0.407632 0.913978,-0.913975 l 0,-5.48386 c 0,-0.506344 -0.400412,-0.913976 -0.913978,-0.913976 l -1.142471,0 -5.026871,0 z m 0.9139767,3.655906 0,1.827954 -1.8279532,0 0,1.827951 1.8279532,0 0,1.827954 1.8279531,0 0,-1.827954 1.827953,0 0,-1.827951 -1.827953,0 0,-1.827954 z" />
  <path
     style="opacity:0.75;color:#000000;fill:#ffffff;fill-opacity:1;fill-rule:nonzero;stroke:none;stroke-width:1;marker:none;visibility:visible;display:inline;overflow:visible;enable-background:accumulate"
     id="path3161"
     inkscape:connector-curvature="0"
     d="m 6.1764824,4.577022 c -0.3797573,0 -0.6854823,0.305726 -0.6854823,0.685483 l 0,0.228493 c 0,-0.379757 0.305725,-0.685483 0.6854823,-0.685483 l 2.5134356,0 c 0.379757,0 0.685482,0.305726 0.685482,0.685483 l 0,-0.228493 c 0,-0.379757 -0.305725,-0.685483 -0.685482,-0.685483 l -2.5134356,0 z M 9.3754,5.490998 l 0,0.228495 5.255366,0 c 0.42705,0 0.776986,0.290896 0.878274,0.685483 l 0.0357,0 c 0,-0.506344 -0.407633,-0.913978 -0.913976,-0.913978 l -5.255366,0 z M 5.9479882,6.861964 c -0.506343,0 -0.9139765,0.407632 -0.9139765,0.913976 l 0,0.228495 c 0,-0.506344 0.4076335,-0.913978 0.9139765,-0.913978 l 2.9704238,0 5.026871,0 1.142471,0 c 0.513566,0 0.913978,0.407634 0.913978,0.913978 l 0,-0.228495 c 0,-0.506344 -0.400412,-0.913976 -0.913978,-0.913976 l -1.142471,0 -5.026871,0 -2.9704238,0 z m 0.9139767,3.655906 0,0.228495 1.8279531,0 0,-0.228495 -1.8279531,0 z m -1.8279532,1.827954 0,0.228493 1.8279532,0 0,-0.228493 -1.8279532,0 z m 3.6559063,0 0,0.228493 1.827953,0 0,-0.228493 -1.827953,0 z" />
  <path
     style="opacity:0.15;color:#000000;fill:#000000;fill-opacity:1;fill-rule:nonzero;stroke:none;stroke-width:1;marker:none;visibility:visible;display:inline;overflow:visible;enable-background:accumulate"
     id="path3938"
     inkscape:connector-curvature="0"
     d="m 5.4910001,6.176481 0,0.228495 10.0537419,0 c 0,-0.0793 -0.0169,-0.15522 -0.0357,-0.228495 l -10.0180397,0 z m 0.9139765,3.655906 0,0.228495 2.7419294,0 0,-0.228495 -2.7419294,0 z m -1.3709649,1.827954 0,0.228495 1.3709649,0 0,-0.228495 -1.3709649,0 z m 4.1128943,0 0,0.228495 1.827953,0 0,-0.228495 -1.827953,0 z m 6.854826,1.370964 c 0,0.506343 -0.407635,0.913977 -0.913978,0.913977 l -4.112895,0 0,0.228493 4.112895,0 c 0.506343,0 0.913978,-0.407632 0.913978,-0.913975 l 0,-0.228495 z m -10.9677203,0.913977 0,0.228493 1.8279532,0 0,-0.228493 -1.8279532,0 z m 3.6559063,0 0,0.228493 1.827953,0 0,-0.228493 -1.827953,0 z m -1.8279531,1.827954 0,0.228493 1.8279531,0 0,-0.228493 -1.8279531,0 z" />
</svg>
